<svg xmlns="http://www.w3.org/2000/svg" viewBox="0 0 500 100">
    <path fill="white" opacity=".5" data-fill="#6da252" d="M29.23,72.67,16.68,87.29A49.85,49.85,0,0,1,0,51.15H19.27A30.7,30.7,0,0,0,29.23,72.67ZM50,80.74a30.59,30.59,0,0,1-18.91-6.51L18.53,88.86a50,50,0,0,0,53.65,6l-9.07-17A30.61,30.61,0,0,1,50,80.74ZM50,0A50,50,0,0,0,0,48.72H19.28a30.74,30.74,0,1,1,46,28l9.07,17a49.41,49.41,0,0,0,6.4-4.26V100H100V50A50,50,0,0,0,50,0Z" />
    <path fill="white" d="M147.78,23.48,126,77.61h9.44l5.42-13.87h22.56L169,77.61h9.67l-22-54.13ZM143.6,56.2q2.82-7.7,8.46-23.16,4.86,13.38,8.32,23.16Zm57.7,1.56,20.12,19.85H210.21l-16.66-17.1v17.1h-8.43V23h8.43V55.27l15-15.8h11.58Zm54-13.31a13.19,13.19,0,0,0-4.82-4.33,14.17,14.17,0,0,0-6.84-1.62,19,19,0,0,0-8,1.67,16.64,16.64,0,0,0-6,4.5A20.63,20.63,0,0,0,226,51.14a23.26,23.26,0,0,0-1.26,7.66A22.43,22.43,0,0,0,226,66.1a20.36,20.36,0,0,0,3.44,6.27,15.82,15.82,0,0,0,5.91,4.44,19.57,19.57,0,0,0,8.16,1.65,13.21,13.21,0,0,0,11.66-6.57v5.72h8.38V39.47h-8.23Zm-2.41,23.62q-2.7,3.63-8.24,3.63T236.07,68a15.05,15.05,0,0,1-2.88-9.56q0-6,2.86-9.6t8.46-3.63q5.46,0,8.26,3.61t2.8,9.55Q255.57,64.45,252.86,68.07Zm55.74-.42q0,4.75.37,10h-8.65l-.15-5.8a9.67,9.67,0,0,1-1.24,2.08A13.54,13.54,0,0,1,296.87,76a10,10,0,0,1-3.24,1.77,13.19,13.19,0,0,1-4.25.66q-7.26,0-11.08-4.1t-3.81-11V39.47h8.35V63.33c0,2.81.7,4.9,2.12,6.29a8.27,8.27,0,0,0,6,2.08q4.51,0,6.84-2.38c1.56-1.59,2.33-3.94,2.33-7.06V39.47h8.43ZM352,42.74q3.57,4.24,3.57,13.49V77.61h-8.42V56c0-3.76-.56-6.5-1.67-8.19s-3.08-2.55-5.89-2.55a11,11,0,0,0-7,2.77,8.08,8.08,0,0,0-3.39,6.34V77.61h-8.42V52.44q0-3.45-.15-6.69c-.1-2.16-.2-3.74-.3-4.76l-.15-1.52H329v5.39a13.19,13.19,0,0,1,5.42-4.7,15.6,15.6,0,0,1,6.88-1.66Q348.44,38.5,352,42.74ZM383.14,71c1.23.13,3,.19,5.38.19v6.39h-3.61a36.39,36.39,0,0,1-6.81-.52,12,12,0,0,1-4.73-2,8,8,0,0,1-3-4.16,22,22,0,0,1-.93-7V45h-7.67V39.47h7.9v-9.3l8.16-2.41V39.47h10.53V45H377.84V64.41a12.25,12.25,0,0,0,.42,3.63,3.51,3.51,0,0,0,1.73,2A7.82,7.82,0,0,0,383.14,71ZM397.7,23.48h8.2v7.44h-8.2Zm0,16h8.24V77.61h-8.24ZM449,42.74q3.57,4.24,3.57,13.49V77.61h-8.42V56c0-3.76-.56-6.5-1.68-8.19s-3.08-2.55-5.88-2.55a11,11,0,0,0-7,2.77,8.09,8.09,0,0,0-3.38,6.34V77.61h-8.43V52.44q0-3.45-.15-6.69c-.1-2.16-.2-3.74-.3-4.76l-.15-1.52H426v5.39a13.13,13.13,0,0,1,5.42-4.7,15.57,15.57,0,0,1,6.88-1.66Q445.46,38.5,449,42.74Zm42.12-3.27v4.68a12.5,12.5,0,0,0-4.42-4.07A13.59,13.59,0,0,0,480,38.5a19.25,19.25,0,0,0-7.93,1.56,15,15,0,0,0-5.7,4.3A19.23,19.23,0,0,0,463,50.68a25.25,25.25,0,0,0-1.15,7.79q0,8.58,5.16,13.64t13.38,5q7,0,10.72-5.35v3.61c0,3.59-1,6.29-3.14,8.1s-5,2.71-8.82,2.71a25.41,25.41,0,0,1-12.75-3.49L465,90a35.68,35.68,0,0,0,14.6,3,24.82,24.82,0,0,0,8.1-1.21,16.49,16.49,0,0,0,5.7-3.16A15.36,15.36,0,0,0,497,83.89a21.38,21.38,0,0,0,1.9-5.63,33.66,33.66,0,0,0,.53-6.11V51.29a114.91,114.91,0,0,1,.6-11.82Zm-.26,23.42a13.19,13.19,0,0,1-1.77,4,8.15,8.15,0,0,1-3.29,2.84,10.84,10.84,0,0,1-4.87,1q-5.09,0-7.69-3.26c-1.75-2.16-2.62-5.22-2.62-9.16a15.29,15.29,0,0,1,2.79-9.46,9.24,9.24,0,0,1,7.86-3.7,8.88,8.88,0,0,1,7.52,3.49q2.63,3.49,2.63,9.26A20.31,20.31,0,0,1,490.9,62.89Z" />
</svg>
