<svg xmlns="http://www.w3.org/2000/svg" viewBox="0 0 530 100">
    <path fill="white" opacity=".75" d="M96.75,32.26A48.77,48.77,0,0,1,98.55,38,50,50,0,0,1,99.64,44a48.79,48.79,0,0,1,.36,6,50,50,0,0,1-50,50A49.89,49.89,0,0,1,14.65,85.36L32.08,67.92a25.33,25.33,0,0,0,3.85,3.15,24.84,24.84,0,0,0,4.37,2.35,25.47,25.47,0,0,0,4.75,1.43,24.29,24.29,0,0,0,5,.48A25.32,25.32,0,0,0,75.33,50c0-.76,0-1.52-.1-2.28s-.17-1.52-.3-2.27-.31-1.48-.51-2.22-.45-1.46-.71-2.17l.72.11.74.08c.24,0,.48,0,.73,0s.49,0,.74,0a17.71,17.71,0,0,0,6.07-1.06A17.91,17.91,0,0,0,94.26,26.75a50.47,50.47,0,0,1,2.49,5.51Z" />
    <path fill="white" opacity=".75" d="M59.76,1a49.6,49.6,0,0,1,18,7.47,48.56,48.56,0,0,1,7.57,6.22L67.91,32.09a25.68,25.68,0,0,0-8.21-5.5,25.35,25.35,0,0,0-4.76-1.43A24.12,24.12,0,0,0,50,24.68,25.32,25.32,0,0,0,24.67,50c0,.76,0,1.52.1,2.28s.17,1.52.3,2.26.31,1.49.51,2.23.45,1.46.71,2.17l-.73-.11-.73-.08-.73,0c-.25,0-.49,0-.74,0a17.94,17.94,0,0,0-6.07,1.05,18.19,18.19,0,0,0-5.36,3.06A17.93,17.93,0,0,0,5.74,73.25a47.71,47.71,0,0,1-2.49-5.5A48.77,48.77,0,0,1,1.45,62,49.81,49.81,0,0,1,.36,56,48.56,48.56,0,0,1,0,50,50,50,0,0,1,59.76,1Z" />
    <path fill="white" d="M89,23.37a12.33,12.33,0,0,1-21.06,8.72,25.68,25.68,0,0,0-8.21-5.5,25.35,25.35,0,0,0-4.76-1.43A24.85,24.85,0,0,0,50,24.67,25.33,25.33,0,0,0,24.67,50c0-37.86,23.17-45.15,34.6-45.15,8.25,0,19.14,2.86,26.08,9.8A12.31,12.31,0,0,1,89,23.37Z" />
    <path fill="white" d="M11.11,76.67A12.34,12.34,0,0,1,23.39,64.4a12.23,12.23,0,0,1,8.69,3.52,25.18,25.18,0,0,0,3.84,3.14,24.93,24.93,0,0,0,4.38,2.35,25.5,25.5,0,0,0,4.75,1.44,24.84,24.84,0,0,0,4.94.48A25.33,25.33,0,0,0,75.32,50c0,37.86-23.16,45.16-34.59,45.16-8.25,0-19.15-2.87-26.08-9.8A12.3,12.3,0,0,1,11.11,76.67Z" />
    <path fill="white" d="M240.67,14c-3.17.1-5.34,2.5-5.36,6,0,4.87,0,9.74,0,14.61,0,.69-.06,1.37-.11,2.34-.74-.51-1.18-.79-1.6-1.1-7.83-5.65-18.14-4.35-24,3.34-5.62,7.43-6,15.65-2.4,24A17.21,17.21,0,0,0,219,73.35l2.28.65h4c3.63-.9,7.11-2.13,9.88-4.82,2.19,3.63,4.16,4.71,7,4,2.62-.64,4.19-2.68,4.19-5.82q.06-23.72,0-47.44C246.35,16.36,243.87,13.91,240.67,14Zm-7.81,46.8a9.16,9.16,0,0,1-14.06-.24c-3.36-4.05-3.4-10.82,0-14.8a8.7,8.7,0,0,1,9.33-3.09c4.06,1,6.21,3.93,7.15,7.82a18,18,0,0,1,.31,2.4A11.84,11.84,0,0,1,232.86,60.8ZM529.12,47.1a19,19,0,0,0-16.65-14.63,18.72,18.72,0,0,0-18.84,11,22.92,22.92,0,0,0-1,17.34,17.35,17.35,0,0,0,12.61,12.06c6.37,1.7,12.66.81,18.68-1.58a5.6,5.6,0,0,0,2.77-3.55c.93-4-2.74-6.81-6.83-5.43a23,23,0,0,1-10.05,1.34c-3.49-.41-6.16-2.78-6.45-5.83,6.71,0,13.4-.09,20.09,0,3,.06,5.22-.76,6.56-3.49V50.77C529.71,49.55,529.43,48.32,529.12,47.1Zm-25.88,1.51a7.45,7.45,0,0,1,14.69,0ZM350.14,32.69C340.09,34.3,333,42.12,332.62,51.88c-.37,10.8,5.83,19.14,16,21.5l2.5.62h4.82a13.66,13.66,0,0,1,1.51-.44,20.61,20.61,0,0,0,9.72-4.5,21.08,21.08,0,0,0,5.37-24.78A20.8,20.8,0,0,0,350.14,32.69ZM359,62.12a8.66,8.66,0,0,1-9.28,1c-3.75-1.75-5.4-5-5.83-8.93a8.32,8.32,0,0,1,0-1,11.28,11.28,0,0,1,2.5-7.41,9.13,9.13,0,0,1,12.74-1.49C364.56,48.49,364.51,58,359,62.12ZM176.63,32.74A20.24,20.24,0,0,0,159.4,51.6c-.48,10.52,5.52,19.05,15.16,21.56l3.27.84h4.82c3.16-1.19,6.62-1.91,9.42-3.66,8.27-5.19,11.34-15.78,7.7-25.08C196.24,36.25,186.83,31.16,176.63,32.74Zm13.28,20.5a11.14,11.14,0,0,1-2.68,7.54,9.12,9.12,0,0,1-12.47,1.32c-5.52-4.17-5.56-13.69,0-17.84A8.65,8.65,0,0,1,184,43.17c3.77,1.71,5.45,4.92,5.91,8.87C190,52.43,189.91,52.84,189.91,53.24Zm227.5-14.39c.06,9.54,0,19.09,0,28.63,0,3.15-1.5,5.14-4.22,5.74s-5-.59-6.3-3.37c-.14-.29-.31-.56-.56-1-2.61,3.15-6.17,4.26-9.83,5.17h-4.42a5,5,0,0,0-.91-.37c-7.06-1.41-11.51-6-11.88-13.15-.37-7.32-.3-14.67-.27-22a5.39,5.39,0,0,1,5.6-5.57c3.1.11,5.31,2.49,5.34,5.86,0,5.48,0,11,0,16.42,0,5.27,3.23,8.75,8.06,8.81s8.45-3.67,8.51-8.77c.07-5.67,0-11.35,0-17a5.41,5.41,0,0,1,9.95-2.76A7.57,7.57,0,0,1,417.41,38.85Zm64.89,31.9c-2.38,1.35-5.21,1.92-7.85,2.79a18.26,18.26,0,0,1-2.34.46h-3.22c-2.09-.41-4.21-.69-6.26-1.27a28.62,28.62,0,0,1-5.19-2.06,4.46,4.46,0,0,1-2.29-6c1.06-2.26,3.52-3.07,6.13-2.2A49.92,49.92,0,0,0,469,64.59a12.68,12.68,0,0,0,5.5-.48,2.35,2.35,0,0,0,.51-4.45,27.16,27.16,0,0,0-5.17-2.09C467.21,56.66,464.52,56,462,55c-3.93-1.68-6.62-4.44-6.82-9-.21-4.93,1.74-8.73,6.06-11.12,5.4-3,11.15-2.93,16.95-1.42A31.66,31.66,0,0,1,482.72,35c3,1.32,4.18,3.69,3.16,6.18s-3.66,3.42-6.75,2.3A27.52,27.52,0,0,0,473,41.73a10.52,10.52,0,0,0-5.21.72c-2.26,1-2.25,3.55,0,4.67a48,48,0,0,0,5.83,2.08,81.17,81.17,0,0,1,7.72,2.74C490,56,488.51,67.24,482.3,70.75ZM154.81,63.24a4.66,4.66,0,0,1-1.46,6.67A71.91,71.91,0,0,1,145,73.53a13.91,13.91,0,0,1-1.71.47h-4.82c-1-.27-2-.56-3.06-.82a20.36,20.36,0,0,1-15.35-21,20.33,20.33,0,0,1,17.33-19.42A21.26,21.26,0,0,1,152.86,36c2.8,1.84,3.53,4.75,1.89,7.22s-4.65,3-7.42,1.28C142.1,41.24,137,41.78,133.68,46c-3.51,4.4-3.1,11.56.89,15.4a9.54,9.54,0,0,0,11.51,1.28c.64-.36,1.22-.82,1.87-1.16A5.13,5.13,0,0,1,154.81,63.24ZM307,45.73A12,12,0,0,0,307.41,61a9.56,9.56,0,0,0,11.95,1.56c.64-.37,1.22-.82,1.87-1.16A5.15,5.15,0,0,1,328,63.16c1.41,2.17,1,5.39-1.35,6.71A80.36,80.36,0,0,1,318,73.55c-.48.19-1,.3-1.51.45H311.7c-1.15-.29-2.31-.57-3.46-.88-9.59-2.59-15.53-11.2-15-21.69a20.3,20.3,0,0,1,17.18-18.69,21.38,21.38,0,0,1,15.7,3.31c2.62,1.73,3.36,4.74,1.83,7.1-1.63,2.52-4.66,3.08-7.4,1.38C315.34,41.3,310.36,41.74,307,45.73Zm-18,1.78c-3.31-14.22-19.82-19.9-30.67-10.58-6.37,5.47-8.83,15.48-5.87,24.07A17.45,17.45,0,0,0,265.1,72.88c6.37,1.7,12.63.74,18.7-1.5a4.43,4.43,0,0,0,2.93-4c.36-3.86-3.07-6.4-7-5.08a22.85,22.85,0,0,1-10.06,1.35,7.41,7.41,0,0,1-6.65-5.83h2.37c6.37,0,12.73,0,19.09,0,3.66,0,5.56-2.15,5.23-5.77A32.87,32.87,0,0,0,289.09,47.51Zm-25.95,1.06a7.46,7.46,0,0,1,14.69,0Zm188.8-10.8c0,3-2.28,5.21-5.54,5.4a29.33,29.33,0,0,0-4.19.45,8.48,8.48,0,0,0-7,6.64,51.4,51.4,0,0,0-.91,8.51c-.15,2.86,0,5.74,0,8.61,0,3.55-2.38,6.09-5.57,6s-5.3-2.43-5.32-6q0-14.22,0-28.43c0-3.31,1.47-5.24,4.31-5.89,2.68-.61,4.86.65,6.33,3.65a5,5,0,0,0,.5.63,15.68,15.68,0,0,1,11.64-4.93A5.45,5.45,0,0,1,451.94,37.77Z"/>
</svg>
