<svg xmlns="http://www.w3.org/2000/svg" viewBox="0 0 380 100">
    <path fill="white" opacity=".2" d="M3.32,50H63.6a0,0,0,0,1,0,0V69.58A27.91,27.91,0,0,1,35.69,97.5H31.23A27.91,27.91,0,0,1,3.32,69.58V50A0,0,0,0,1,3.32,50Z" />
    <path fill="white" d="M143,26.77V73.23a6.74,6.74,0,0,1-1.66,4.87,6.32,6.32,0,0,1-4.81,1.73,6.25,6.25,0,0,1-4.74-1.73,6.78,6.78,0,0,1-1.66-4.87V54.91H102.87V73.23q0,6.6-6.39,6.6a6.35,6.35,0,0,1-4.82-1.73A6.74,6.74,0,0,1,90,73.23V26.77q0-6.6,6.48-6.6t6.39,6.6V44.26h27.24V26.77q0-6.6,6.4-6.6T143,26.77Zm55-5.2a5.51,5.51,0,0,0-4.07-1.4,6.76,6.76,0,0,0-3.66,1,11.14,11.14,0,0,0-3.07,3.13l-12,17.17-12-17.17q-2.82-4.12-6.72-4.12a5.76,5.76,0,0,0-4.24,1.48,5.45,5.45,0,0,0-1.66,3.55,5.62,5.62,0,0,0,1,3.71l16.94,23.94v20.3a6.84,6.84,0,0,0,1.66,4.95,6.35,6.35,0,0,0,4.82,1.73q6.39,0,6.39-6.68V52.93l16.78-23.85A6.35,6.35,0,0,0,199.57,25,4.62,4.62,0,0,0,198,21.57Zm57-1.4a6.37,6.37,0,0,0-4.23,1.32,9,9,0,0,0-2.49,3.63L232,62.67,215.74,25.2a9.83,9.83,0,0,0-2.57-3.71,6,6,0,0,0-4.24-1.32,6,6,0,0,0-5.23,2.47c-1.11,1.6-1.11,3.63,0,6.11L224.63,75a9,9,0,0,0,2.74,3.71,7.8,7.8,0,0,0,4.4,1.15,7.17,7.17,0,0,0,4.32-1.15A9.63,9.63,0,0,0,238.91,75l20.93-46.22c1.11-2.48,1.11-4.51,0-6.11A5.32,5.32,0,0,0,255,20.17Zm63.62,14a32.12,32.12,0,0,1,3.65,15.68,32.79,32.79,0,0,1-3.65,15.84,26,26,0,0,1-10.13,10.57,33,33,0,0,1-30.4,0A26.83,26.83,0,0,1,268,65.8,33.47,33.47,0,0,1,264.41,50,33,33,0,0,1,268,34.2a26.11,26.11,0,0,1,10.13-10.49,33,33,0,0,1,30.4,0A25.42,25.42,0,0,1,318.64,34.2ZM308.84,50q0-9.08-4.07-14t-11.46-5q-7.23,0-11.38,5t-4.07,14q0,9,4.07,14.11t11.38,5q7.31,0,11.38-5T308.84,50Zm70.75,27.23c-.72,1.76-2.47,2.64-5.23,2.64a8,8,0,0,1-4.49-1.15,9.23,9.23,0,0,1-3-3.55l-8-14.61a6.79,6.79,0,0,0-3.07-3.13,10.44,10.44,0,0,0-4.32-.83h-6.31V73.23a6.74,6.74,0,0,1-1.67,4.87,6.06,6.06,0,0,1-4.73,1.73A6.36,6.36,0,0,1,334,78.1a6.78,6.78,0,0,1-1.66-4.87V27.43q0-6.53,6.56-6.52h20.18q9.81,0,15.12,4.7t5.31,13.12a17.21,17.21,0,0,1-3.4,10.9,16.84,16.84,0,0,1-9.55,5.86q4.4,1.32,7.22,6.35l5.15,9.49A6.61,6.61,0,0,1,379.59,77.19ZM367.13,39.06q0-8.16-10.38-8.17H345.21V47.32h11.54Q367.13,47.32,367.13,39.06Z" />
    <path fill="white" d="M65.64,32.19A32.82,32.82,0,0,0,0,32.85l.36,35A32.82,32.82,0,0,0,66,67.15Zm-60.11.6a27,27,0,0,1,27-27.31A27,27,0,0,1,60.11,32.25l.16,14.86H5.67ZM33.46,94.52A27,27,0,0,1,5.89,67.75L5.73,52.59H60.32l.15,14.62A27,27,0,0,1,33.46,94.52Zm-8.6-71.07a5.69,5.69,0,0,0-5.28,0c-.4.24-.46.38-.47.39a2.57,2.57,0,0,1-5.13,0,5.65,5.65,0,0,1,2.86-4.66,10.12,10.12,0,0,1,5.38-1.42,10.12,10.12,0,0,1,5.38,1.42,5.65,5.65,0,0,1,2.86,4.66,2.57,2.57,0,0,1-5.13,0S25.26,23.69,24.86,23.45Zm27.51.35a2.57,2.57,0,0,1-5.13,0,1.24,1.24,0,0,0-.46-.39,5.71,5.71,0,0,0-5.29,0c-.4.24-.46.38-.46.39a2.57,2.57,0,0,1-5.14,0,5.63,5.63,0,0,1,2.87-4.66,10.88,10.88,0,0,1,10.75,0A5.63,5.63,0,0,1,52.37,23.8ZM41.24,35.93a5.63,5.63,0,0,1-2.86,4.65A10.13,10.13,0,0,1,33,42a10.13,10.13,0,0,1-5.38-1.43,5.63,5.63,0,0,1-2.86-4.65,2.55,2.55,0,0,1,2.57-2.54h0a2.55,2.55,0,0,1,2.56,2.5,1.52,1.52,0,0,0,.47.39,5.76,5.76,0,0,0,5.28,0,1.52,1.52,0,0,0,.47-.39,2.57,2.57,0,0,1,5.13,0Z" transform="translate(0 0)"/>
</svg>
