<svg xmlns="http://www.w3.org/2000/svg" viewBox="0 0 244 34">
    <path fill="white" opacity=".75" data-fill="#4F46E5" d="M18,15V25a1,1,0,0,1-2,0V15a1,1,0,0,1,2,0ZM9,20a1,1,0,0,0-1,1v4a1,1,0,0,0,2,0V21A1,1,0,0,0,9,20ZM25,8a1,1,0,0,0-1,1V25a1,1,0,0,0,2,0V9A1,1,0,0,0,25,8Zm9-3V29a5,5,0,0,1-5,5H5a5,5,0,0,1-5-5V5A5,5,0,0,1,5,0H29a5,5,0,0,1,5,5ZM32,5a3,3,0,0,0-3-3H5A3,3,0,0,0,2,5V29a3,3,0,0,0,3,3H29a3,3,0,0,0,2.12-.88A3,3,0,0,0,32,29Z" />
    <path fill="white" d="M47.16,26.68h8.47v2.58H44V5h3.16ZM70,29.5a12.33,12.33,0,0,1-6.15-1.56,11.91,11.91,0,0,1-4.41-4.42,12.9,12.9,0,0,1-1.59-6.4,12.72,12.72,0,0,1,1.59-6.36,11.63,11.63,0,0,1,4.41-4.42,12.68,12.68,0,0,1,12.33,0,11.42,11.42,0,0,1,4.37,4.38,12.7,12.7,0,0,1,1.6,6.4,12.7,12.7,0,0,1-1.6,6.4,11.6,11.6,0,0,1-4.37,4.42A12.45,12.45,0,0,1,70,29.5Zm0-2.75a8.76,8.76,0,0,0,4.54-1.18,8.2,8.2,0,0,0,3.2-3.37,10.5,10.5,0,0,0,1.18-5.08,10.32,10.32,0,0,0-1.18-5.07,8.27,8.27,0,0,0-3.16-3.38,9.5,9.5,0,0,0-9.17,0,8.47,8.47,0,0,0-3.19,3.38A10.66,10.66,0,0,0,61,17.12a10.84,10.84,0,0,0,1.15,5.08,8.5,8.5,0,0,0,3.19,3.37A9,9,0,0,0,70,26.75Zm30.62-2.88H90l-2,5.39H84.75L93.5,5.16h3.65l8.71,24.1h-3.33Zm-.9-2.58L95.31,9.05,90.93,21.29ZM117.21,5a14.63,14.63,0,0,1,6.84,1.5,10.14,10.14,0,0,1,4.44,4.2,12.91,12.91,0,0,1,1.56,6.47,12.89,12.89,0,0,1-1.56,6.47,10.19,10.19,0,0,1-4.44,4.17,15.27,15.27,0,0,1-6.84,1.43h-7.54V5Zm0,21.63c3.12,0,5.51-.82,7.15-2.47a9.55,9.55,0,0,0,2.46-7,9.62,9.62,0,0,0-2.5-7.06q-2.46-2.54-7.11-2.54h-4.38V26.65Zm32.36-21.8V9.61h-9.93v5.15h7.43v4.62h-7.43v9.88H133.7V4.85ZM164.21,29.5a12.77,12.77,0,0,1-6.32-1.6,12.21,12.21,0,0,1-4.55-4.45A12.7,12.7,0,0,1,151.68,17a12.52,12.52,0,0,1,1.66-6.43,12.21,12.21,0,0,1,4.55-4.45,12.77,12.77,0,0,1,6.32-1.6,12.6,12.6,0,0,1,6.29,1.6A11.62,11.62,0,0,1,175,10.55,12.52,12.52,0,0,1,176.67,17,12.7,12.7,0,0,1,175,23.45a12,12,0,0,1-4.51,4.45A12.6,12.6,0,0,1,164.21,29.5Zm0-5.42a5.9,5.9,0,0,0,4.65-1.95A7.36,7.36,0,0,0,170.63,17a7.26,7.26,0,0,0-1.77-5.14,5.9,5.9,0,0,0-4.65-1.95,6.13,6.13,0,0,0-4.72,1.91A7.41,7.41,0,0,0,157.75,17a7.46,7.46,0,0,0,1.74,5.18A6.11,6.11,0,0,0,164.21,24.08Zm28.2,5.18L187.34,20h-1.43v9.22H180V4.85h10a10.79,10.79,0,0,1,4.9,1,6.9,6.9,0,0,1,3,2.78,7.62,7.62,0,0,1,1,3.89,7.17,7.17,0,0,1-5.42,7.06l5.63,9.67Zm-6.5-13.42h3.68A3.35,3.35,0,0,0,192,15a3,3,0,0,0,.83-2.26,2.94,2.94,0,0,0-.83-2.2,3.35,3.35,0,0,0-2.44-.79h-3.68Zm32.89-3.27a4.33,4.33,0,0,0-1.91-1.85A6.54,6.54,0,0,0,209.4,12a7.12,7.12,0,0,0-1.74,5,7.34,7.34,0,0,0,1.81,5.28,6.71,6.71,0,0,0,5,1.88,6,6,0,0,0,3.68-1.11,6.23,6.23,0,0,0,2.22-3.2h-7.53V15.49h12.91V21a11.55,11.55,0,0,1-2.25,4.13,11.72,11.72,0,0,1-4,3.1,12.35,12.35,0,0,1-5.48,1.18,13.22,13.22,0,0,1-6.46-1.56,11.63,11.63,0,0,1-4.41-4.42A13.05,13.05,0,0,1,201.62,17a13.09,13.09,0,0,1,1.56-6.44,11.27,11.27,0,0,1,4.41-4.41A12.75,12.75,0,0,1,214,4.57a12.4,12.4,0,0,1,7.36,2.12,10,10,0,0,1,4,5.88Zm16.21-3v4.94h8v4.59h-8v5.35h9v4.77H229.07V4.85H244V9.61Z" />
</svg>
