<svg xmlns="http://www.w3.org/2000/svg" viewBox="0 0 740 84">
    <path fill="white" opacity=".7" d="M154,8l-9.1,12.74-19.77.45L108.6,38l.26,4.9,7.35,5.58-15.14,12.3H87.76l4.91-6.94L103,50.44,90,45.86l-24.22.73L46.48,61.83l-18.9,7.59-5.25,8.9,1,5.68H13.5L24.17,62.09,43.59,31.46,5.8,21.77,0,18.26,53,23.6,102.9,11.3,117.7.38l1.74,9.35.7,2.62,3.15,3.14.41-5.66L126.34,0l10.34,1.09,1.13,4.19ZM108,59.47l-6,4.71L107.11,84h9.75l-4.64-5.81ZM47.53,64.71l5.89,17.18h9L57,72.82V70.6l12.21-7.33,4.2-13.49h-6.3Z" />
    <path fill="white" d="M252.79,44.5a12.57,12.57,0,0,1,3.88,9.44,14.71,14.71,0,0,1-4.57,11,25.35,25.35,0,0,1-11.39,6.25A59.31,59.31,0,0,1,225.45,73a53.93,53.93,0,0,1-21.18-4.1Q194.58,64.81,190,58.25l8.19-5.77q3.54,5.18,11.3,8.32a43.65,43.65,0,0,0,16.56,3.14,52.38,52.38,0,0,0,10.31-.9,18.12,18.12,0,0,0,7.42-3.15,6.92,6.92,0,0,0,3-5.77q0-4.07-5.52-5.95t-17.08-2.85q-15.51-1.2-22.89-5t-7.38-11.21q0-8.1,8.19-13.11t20.62-5a55.85,55.85,0,0,1,20,3.49q9.13,3.49,13.71,9.62l-8.28,5.77q-3.19-4.56-10.26-7.2a43.32,43.32,0,0,0-15.18-2.62,32.47,32.47,0,0,0-13.24,2.37c-3.54,1.58-5.3,3.66-5.3,6.25,0,2.41,1.6,4.14,4.83,5.17s9.11,1.9,17.67,2.59a80,80,0,0,1,15.92,2.5A23.89,23.89,0,0,1,252.79,44.5ZM293.93,64q-8.12,0-13.07-3.79t-5-10.87q0-7.07,4.88-10.86t13-3.8q11.39,0,15.87,6.73l7.93-5.69a21.89,21.89,0,0,0-9.66-7.42,36.56,36.56,0,0,0-14.14-2.58q-12.51,0-20.06,6.29t-7.54,17.33q0,11.13,7.5,17.38T293.93,73a35,35,0,0,0,14.14-2.72,23.06,23.06,0,0,0,9.75-7.63l-7.76-5.43Q305.4,64,293.93,64ZM379.4,49.37q0,11.13-7.46,17.38T352,73q-12.5,0-20-6.25t-7.46-17.38q0-11.11,7.46-17.37t19.88-6.25q12.58,0,20.05,6.25T379.4,49.37Zm-9.75,0q0-7.07-4.83-10.86t-12.93-3.8q-8,0-12.81,3.8t-4.79,10.86q0,7.08,4.79,10.87T352,64q8,0,12.85-3.79T369.65,49.37Zm61.67.52a12.81,12.81,0,0,1-5,10.35q-4.78,3.7-12.2,3.7c-4.54,0-8-1-10.48-3.06S400,55.87,400,52V26.52h-9.66V53.77q0,8.71,5.82,13.93t15.66,5.21q13,0,19.49-8v7.25H441V26.52h-9.66Zm39,12.07Q469,60.07,469,55.49V36h11V27.38H469V12l-9.66,7.16v8.27H450V36h9.31V56.27q0,8.63,3.15,12.55T473,72.74a30.26,30.26,0,0,0,6.21-.69l1.46-8.79a30.69,30.69,0,0,1-5.6.6C472.8,63.86,471.24,63.23,470.35,62ZM552.5,11.78l30,60.36H571.82l-10.53-21H531.8l-10.44,21H510.84l29.93-60.36ZM557,42.39,546.55,21.52,536.11,42.39Zm88.88-26a15.66,15.66,0,0,1,5,12.12,15.64,15.64,0,0,1-5,12.11q-5,4.62-13,4.61H603.12V72.14h-9.83V11.78h39.59Q640.81,11.78,645.86,16.39ZM641,28.51q0-7.59-9.32-7.59H603.12V36.09h28.55Q641,36.09,641,28.51Zm87.88-16.73-27.42,48-27.26-48H663V72.14h9.83V28.07l25.1,44.07h7.25l25.09-44.07V72.14H740V11.78Z" />
</svg>
