<svg xmlns="http://www.w3.org/2000/svg" viewBox="0 0 580 250">
    <path fill="white" d="M570.24,0H9.76A9.77,9.77,0,0,0,0,9.58V240.46H0A9.77,9.77,0,0,0,9.76,250H570.23a9.78,9.78,0,0,0,9.77-9.57V9.52A9.76,9.76,0,0,0,570.24,0ZM566,236H14V14H566Zm-76-71.14H435.55V85.14h54v18H455.47v13h30.65v17H455.43v13.73l34.57,0ZM311.1,103.64l0-18.49h59V103.6H350.7v61.31H330.55V103.64Zm96.58,61.27H387.5l0-79.76h20.14ZM130.25,142.53v-.11c0-3.18-2.36-5.13-11.55-8.42-14.8-5.13-25.23-10.59-25.23-25.06v-.34c0-14.46,10.89-24.6,28-24.6,10.54,0,19.8,3,28,9.68l-10.2,15.26c-5.39-4.22-11.88-7.29-18.28-7.29-4.59,0-7.17,2.28-7.17,5.24V107c0,3.53,2.46,5.35,12.44,9.11,15,4.89,24.26,11.06,24.26,24.59v.23c0,15.49-11.77,25.06-28.59,25.06A47.29,47.29,0,0,1,90,154.27l10.76-14.92c6.4,5.35,13.68,9,21.3,9C127.45,148.35,130.25,146,130.25,142.53Zm127.24,8h24.69l4.59,14.35H308L280.24,84.73l-20.4,0-27.62,80.18H253Zm12.33-39.71,7.28,23.35H262.53Zm-80.46,30.93h7.73c17.14-.22,30.82-9.36,30.82-28.47v-.45c0-17.88-12.1-27.67-30.6-27.67H169.26v79.72h20.1Zm0-39.07h6.93c7.28,0,11.43,3.77,11.43,11.06l0,.34c0,6.71-4.27,10.93-11.33,10.93h-7Z" />
</svg>
