<svg xmlns="http://www.w3.org/2000/svg" viewBox="0 0 200 34">
    <path fill="white" opacity=".75" d="M8,27c0,2.2-1.8,4-4,4s-4-1.8-4-4c0-2.2,1.8-4,4-4S8,24.8,8,27z M18,14.6c-2.1-0.9-4.2-1.7-6.3-2.7 c-1.5-0.7-2.8-1.6-3.9-2.7C7.2,8.6,6.6,8,6.5,7.1c-0.4-2.5,0.4-4.5,3-5.9C10.7,0.6,12,0.3,13.3,0c-1,0-2.1,0.1-3.1,0.3 C8,0.6,5.9,1.3,4.1,2.6c-2.3,1.6-3.5,3.8-3,6.6c0.6,3.5,2.6,6.1,5.6,7.9c1.7,1,3.5,1.6,5.4,2.3c1.8,0.7,3.5,1.3,5.3,2.1 c1.9,0.9,3.3,2.2,4.1,4.1c1.2,2.7,0.3,4.8-2.1,6.4c-1,0.7-2.2,1.1-3.3,1.5c-0.6,0.2-1.3,0.3-1.9,0.5c0,0,0,0.1,0,0.1 c0.9-0.1,1.9-0.1,2.8-0.2c2.4-0.3,4.7-0.9,6.6-2.5c2.3-1.9,3.5-4.2,3.4-7.2c-0.1-1.8-0.8-3.3-2-4.7C23.1,17.2,20.7,15.8,18,14.6z M137.2,7.8c1.5,0,2.7-1.1,2.7-2.4c0-1.3-1.2-2.4-2.7-2.4c-1.5,0-2.7,1.1-2.7,2.4C134.6,6.7,135.8,7.8,137.2,7.8z M116.6,30.2 c-0.6-0.2-1.2-0.4-1.8-0.6c0-0.2,0-0.4,0-0.7c0-3.1,0-6.2,0-9.3c0-1.8-0.1-3.5-0.7-5.2c-0.4-1-0.9-1.8-1.9-2.2 c-1.8-0.8-3.6-0.9-5.4-0.2c-1.8,0.6-2.8,2-3.6,3.7c-0.1,0.2-0.2,0.4-0.3,0.6c-0.2-0.6-0.3-1.1-0.5-1.6c-0.4-1.3-1.3-2.3-2.5-2.7 c-1.2-0.5-2.5-0.5-3.8-0.2c-2,0.4-3.2,1.7-4.1,3.5c-0.1,0.2-0.2,0.4-0.3,0.6c0,0-0.1,0-0.1,0c0-1.4,0-2.8,0-4.2 c-1.3-0.2-4.8,0.7-6,1.4c0,0.3,0,0.6,0,0.9c0.6,0.1,1.2,0.2,1.9,0.2c0.7,0.1,0.7,0.1,0.7,0.8c0,4.7,0,9.4,0,14c0,0.1,0,0.2,0,0.3 c0,0.3-0.1,0.4-0.4,0.5c-0.5,0.1-1,0.3-1.5,0.5c-0.8,0.3-0.8,0.3-0.7,1.2c2.8,0,5.5,0,8.3,0c0.1-0.9,0.1-0.9-0.7-1.2 c-0.3-0.1-0.7-0.3-1-0.4c-0.5-0.1-0.6-0.4-0.6-0.9c0-3.3,0-6.6,0-9.9c0-2.1,1-3.6,2.7-4.7c1.8-1.1,4-0.5,4.8,1.2 c0.3,0.7,0.5,1.4,0.5,2.1c0.1,3.8,0.1,7.6,0.2,11.4c0,0.3-0.1,0.4-0.4,0.5c-0.4,0.1-0.8,0.3-1.2,0.5c-0.7,0.3-0.7,0.4-0.6,1.2 c2.7,0,5.5,0,8.2,0c0.1-0.9,0.1-0.9-0.6-1.2c-0.4-0.2-0.8-0.3-1.2-0.4c-0.7-0.2-0.7-0.2-0.7-1c0-3.1,0-6.2,0-9.3 c0-1.3,0.3-2.5,0.9-3.6c0.7-1.4,1.8-2.1,3.4-2.2c1.5,0,2.8,0.3,3.3,2.2c0.3,0.9,0.4,1.8,0.4,2.7c0.1,3.3,0,6.6,0,9.9 c0,0.9,0,0.9-0.8,1.2c-0.3,0.1-0.5,0.2-0.8,0.3c-0.8,0.4-0.8,0.4-0.6,1.2c2.7,0,5.5,0,8.2,0C117.4,30.6,117.4,30.5,116.6,30.2z M163.6,30.3c-1.1-0.4-1.9-1-2.5-1.9c-1.2-1.6-2.5-3.1-3.7-4.7c-0.8-1.1-1.7-2.2-2.5-3.3c0.1-0.1,0.1-0.2,0.2-0.3c1.7-2,3.5-4,5.2-6 c0.1-0.1,0.3-0.2,0.5-0.3c0.6-0.2,1.3-0.4,1.9-0.6c0.8-0.3,0.8-0.3,0.6-1.2c-2.5,0-4.9,0-7.4,0c-0.1,0.9-0.2,0.9,0.6,1.3 c0.4,0.2,0.8,0.4,1.3,0.6c-1.6,2.3-3.4,4.4-5.2,6.4c-0.4,0.5-0.9,0.6-1.5,0.4c0-6.2,0-12.4,0-18.7c-0.7,0.1-1.4,0.2-2,0.3 c-1.2,0.3-2.5,0.5-3.7,0.9c-0.9,0.3-0.8,0.3-0.7,1.3c1,0.1,1.9,0.2,2.9,0.4c0,0.3,0,0.6,0,0.8c0,7.7,0,15.5,0,23.2 c0,0.1,0,0.3,0,0.4c0,0.4-0.1,0.5-0.5,0.6c-0.5,0.1-1,0.3-1.5,0.5c-0.7,0.3-0.8,0.4-0.5,1.2c2.8,0,5.6,0,8.5,0c0-1,0.2-0.8-0.7-1.3 c-0.4-0.2-0.8-0.3-1.2-0.4c-0.5-0.1-0.6-0.3-0.6-0.8c0-1.4,0-2.9,0-4.3c0-0.9,0-1.8,0-2.8c0.9,0.1,1.4,0.4,1.9,1.1 c1.7,2.5,3.4,4.9,5.2,7.3c0.6,0.8,1.3,1.3,2.3,1.2c0.6-0.1,1.1,0,1.7,0c0.6,0,1.3,0,1.9,0C164.3,30.6,164.3,30.5,163.6,30.3z M64.6,16.9c1,3.2,1.1,6.5-0.1,9.7c-1.2,3.2-3.6,4.9-6.9,5.3c-1.4,0.2-2.8,0.1-4.2-0.2c-3-0.7-4.8-2.5-5.8-5.4 c-0.2-0.7-0.4-1.3-0.5-2c-0.1-0.8-0.2-1.7-0.2-2.5c0-1.7,0.3-3.4,0.9-5c1.3-3.1,3.6-4.7,6.9-5.1c1.9-0.2,3.9-0.1,5.7,0.7 C62.5,13.2,63.9,14.7,64.6,16.9z M61.7,21.9c-0.1-0.9-0.1-1.7-0.2-2.6c-0.2-1.5-0.6-2.8-1.5-4.1c-1.4-1.9-4-2.7-6.1-1.6 c-1.5,0.7-2.3,2.1-2.7,3.7c-0.7,2.8-0.7,5.7,0,8.5c0.5,2.1,1.7,3.7,3.9,4.3c2.4,0.7,4.2,0,5.4-2.1c0.3-0.5,0.5-1,0.6-1.5 C61.6,24.9,61.7,23.4,61.7,21.9z M183,16.8c0.3,1.5,0.2,3.1,0,4.7c0,0.1-0.1,0.2-0.1,0.3c-4,0-8,0-12.1,0c0,1.6,0.3,3.1,1,4.5 c1.2,2.4,3.7,3.6,6.3,3.3c1.2-0.1,2.5-0.3,3.6-0.9c0.2-0.1,0.4-0.3,0.7-0.4c0.2,0.2,0.3,0.4,0.5,0.5c-0.5,1.1-1.4,1.7-2.3,2.2 c-3.2,1.5-6.4,1.4-9.4-0.4c-1.8-1-2.8-2.7-3.4-4.7c-0.9-3.1-0.9-6.1,0.2-9.2c1.1-3.1,3.4-4.8,6.7-5.1c1.5-0.2,3-0.1,4.5,0.4 C181.3,12.8,182.6,14.5,183,16.8z M179.1,15.7c-0.3-1-0.9-1.8-1.9-2.2c-1.7-0.6-4.4-0.4-5.5,2.3c-0.2,0.4-0.3,0.8-0.4,1.1 c-0.2,1-0.3,2.1-0.5,3.2c3,0,5.8,0,8.7,0C179.7,18.5,179.6,17.1,179.1,15.7z M197.8,22.2c-1.1-0.8-2.3-1.5-3.5-2.2 c-1.1-0.6-2.1-1.2-3-2.1c-1.1-1.2-0.9-3.2,0.4-4.1c1.1-0.8,2.2-0.6,3.4-0.4c0.5,0.1,0.7,0.3,0.8,0.7c0.3,0.9,0.7,1.9,1,2.8 c0.3,0.8,0.3,0.8,1.3,0.6c0.3-1.6,0.6-3.3,0.9-5c-0.3-0.1-0.4-0.1-0.6-0.2c-1.4-0.4-2.9-0.6-4.4-0.7c-1.5-0.1-2.9,0-4.3,0.7 c-1.5,0.7-2.6,1.8-2.9,3.5c-0.3,1.5,0.2,2.9,1.2,4.1c1.1,1.3,2.5,2.1,3.9,2.9c1.1,0.6,2.2,1.3,3.1,2.1c1.8,1.4,1.2,4-0.7,5 c-1.1,0.6-2.3,0.5-3.5,0.4c-0.4-0.1-0.7-0.3-0.9-0.8c-0.4-1.1-0.9-2.2-1.3-3.3c-0.1-0.4-0.4-0.5-0.7-0.5c-0.4,0-0.5,0.2-0.6,0.5 c0,0.2-0.1,0.3-0.1,0.5c-0.4,1.4-0.6,2.7-0.7,4.2c0.3,0.1,0.5,0.2,0.8,0.3c1.5,0.5,3.1,0.8,4.7,0.8c1.8,0.1,3.5-0.3,5.1-1.2 C200.4,28.9,201.1,24.6,197.8,22.2z M42.5,29.3c-1,0.1-2,0.3-3,0.3c-1.4,0-2.3-0.7-2.7-2.1c-0.1-0.5-0.2-1-0.2-1.6 c0-3.9,0-7.7,0-11.6c0-0.1,0-0.3,0.1-0.5c1.9,0,3.8,0,5.7,0c0-0.7,0-1.2,0-1.9c-1.9,0-3.8,0-5.8,0c0-1.7,0-3.4,0-5.1 c-0.2,0-0.3-0.1-0.4-0.1c-1.1,0-1.9,0.6-2.7,1.1c-0.3,0.2-0.4,0.5-0.4,0.8c0,0.9,0,1.9,0,2.7c-0.9,0.4-1.7,0.7-2.5,1.1 c-0.7,0.3-0.7,0.4-0.5,1.4c1,0,1.9,0,3,0c0,0.3,0,0.6,0,0.8c0,3.8,0,7.5,0,11.3c0,0.9,0.1,1.7,0.2,2.6c0.3,1.7,1.3,2.8,3.1,3.2 c2.5,0.6,4.7-0.3,6.6-1.8c0.4-0.3,0.2-0.5,0-0.8C42.9,29.2,42.7,29.3,42.5,29.3z M128.8,30.3c-0.4-0.2-0.8-0.3-1.2-0.4 c-0.7-0.3-0.7,0-0.7-1c0-8.6,0-17.2,0-25.8c0-0.3,0-0.6,0-0.9c-0.1,0-0.2-0.1-0.3,0c-0.8,0.1-1.6,0.2-2.4,0.4 c-1.1,0.2-2.2,0.6-3.3,0.9c-0.2,0.1-0.4,0.3-0.4,0.4c-0.1,0.6,0,0.7,0.6,0.8c0.8,0.1,1.5,0.2,2.3,0.3c0,8.3,0,16.5,0,24.8 c-0.6,0.2-1.3,0.5-1.9,0.7c-0.7,0.3-0.8,0.4-0.5,1.2c2.8,0,5.6,0,8.5,0C129.6,30.6,129.6,30.6,128.8,30.3z M80.8,11.5 c-0.2,0-0.5,0-0.7,0c-2.3,0.4-3.9,1.7-5,3.6c-0.1,0.2-0.2,0.3-0.3,0.5c0,0-0.1,0-0.1-0.1c0-1.3,0-2.7,0-4.1c-2.2,0.1-4.1,0.7-6,1.4 c0,0.4,0,0.6,0,1c0.7,0.1,1.4,0.2,2.1,0.2c0.3,0,0.5,0.2,0.5,0.5c0,0.3,0,0.6,0,1c0,4.5,0,8.9,0,13.4c0,0.5-0.1,0.7-0.6,0.8 c-0.4,0.1-0.8,0.3-1.3,0.4c-0.8,0.3-0.8,0.3-0.7,1.2c3,0,6.1,0,9.1,0c0.1-0.9,0.1-0.9-0.6-1.2c-0.4-0.2-0.8-0.3-1.3-0.4 c-0.4-0.1-0.8-0.2-1.2-0.2c0-0.2,0-0.2,0-0.3c0-3.7,0-7.3,0-11c0-0.2,0-0.4,0.1-0.6c0.3-1,0.8-1.8,1.6-2.5c0.3-0.3,0.6-0.4,1.1-0.4 c1.4,0,2.7,0,4.1,0c0.2,0,0.4,0,0.6,0c0.1-0.9-0.3-2.5-0.8-3.1C81.1,11.6,80.9,11.5,80.8,11.5z M141,30.2c-0.4-0.2-0.8-0.3-1.3-0.4 c-0.8-0.2-0.7-0.1-0.7-0.9c0-5.5,0-11,0-16.6c0-0.3,0-0.5,0-0.9c-0.4,0-0.8,0-1.1,0.1c-1.4,0.3-2.8,0.7-4.2,1.1 c-0.9,0.2-0.9,0.3-0.8,1.3c0.6,0.1,1.3,0.2,1.9,0.3c0.6,0.1,0.6,0.1,0.6,0.7c0,1.9,0,3.8,0,5.6c0,2.9,0,5.7,0,8.6 c0,0.4-0.1,0.7-0.6,0.8c-0.5,0.1-0.9,0.3-1.4,0.5c-0.7,0.3-0.8,0.4-0.5,1.2c2.8,0,5.7,0,8.5,0C141.7,30.6,141.7,30.6,141,30.2z"/>
    <circle fill="white" cx="23" cy="6" r="4"/>
</svg>
