<svg xmlns="http://www.w3.org/2000/svg" viewBox="0 0 200 72">
    <path fill="white" d="M189.5,0h-61C122.7,0,118,4.7,118,10.5v51c0,5.8,4.7,10.5,10.5,10.5h61c5.8,0,10.5-4.7,10.5-10.5v-51 C200,4.7,195.3,0,189.5,0z M156.8,56.4h-7.7v-2.7c-0.8,0.8-1.6,1.4-2.6,1.9c-1.7,0.9-3.5,1.3-5.6,1.3c-2.7,0-5-0.7-7.1-2 c-2.1-1.3-3.8-3.1-5-5.4c-1.2-2.3-1.8-4.8-1.8-7.7c0-2.9,0.6-5.5,1.8-7.7c1.2-2.3,2.9-4.1,4.9-5.4c2.1-1.3,4.5-2,7.2-2 c2.1,0,3.9,0.4,5.5,1.3c1,0.5,1.9,1.1,2.6,1.9V13h7.8V56.4z M167.8,56.4H160v-29h7.8V56.4z M167.1,21.5c-0.8,0.8-1.8,1.3-3.1,1.3 c-1.3,0-2.3-0.4-3.1-1.3c-0.8-0.9-1.2-2-1.2-3.2c0-1.2,0.4-2.3,1.2-3.2c0.8-0.9,1.9-1.3,3.1-1.3c1.3,0,2.4,0.4,3.1,1.3 c0.8,0.9,1.2,1.9,1.2,3.2C168.3,19.5,167.9,20.6,167.1,21.5z M188.1,35.4c-0.4-0.5-1-0.8-1.6-1.1c-0.6-0.2-1.3-0.4-2.1-0.4 c-1.7,0-3,0.5-4.1,1.6c-1,1-1.5,2.6-1.5,4.8v16H171v-29h7.8V30c0,0,0-0.1,0.1-0.1c1.7-2.1,4.2-3.1,7.4-3.1c1.4,0,2.6,0.2,3.7,0.7 c1.1,0.4,2.1,1.2,3,2.2L188.1,35.4z M148.6,37.9c0.6,1.2,1,2.5,1,4c0,1.6-0.3,2.9-1,4.1c-0.6,1.2-1.4,2.1-2.6,2.8 c-1.1,0.6-2.3,1-3.8,1c-1.4,0-2.6-0.3-3.7-1c-1.1-0.7-2-1.6-2.6-2.8c-0.6-1.2-0.9-2.6-0.9-4.1c0-1.5,0.3-2.9,0.9-4 c0.6-1.2,1.5-2.1,2.6-2.8c1.1-0.7,2.4-1,3.9-1c1.4,0,2.7,0.3,3.7,1C147.1,35.7,148,36.7,148.6,37.9z"/>
    <path fill="white" opacity=".75" d="M8,49.3h19v7.1H8H5.9H0V15h8V49.3z M49.8,28h7.7v28.5h-7.7v-2.8c-0.8,0.8-1.7,1.6-2.8,2.1 c-1.6,0.8-3.4,1.2-5.5,1.2c-2.6,0-4.9-0.6-7-1.9c-2.1-1.3-3.7-3.1-4.9-5.3c-1.2-2.2-1.8-4.8-1.8-7.5c0-2.8,0.6-5.4,1.8-7.6 c1.2-2.2,2.8-4,4.9-5.3c2.1-1.3,4.4-1.9,7-1.9c2,0,3.9,0.4,5.5,1.2c1.1,0.6,2,1.3,2.8,2.1V28z M50.2,42.2c0-1.5-0.3-2.8-0.9-3.9 c-0.6-1.2-1.4-2.1-2.5-2.7c-1.1-0.7-2.3-1-3.8-1c-1.4,0-2.7,0.3-3.8,1c-1.1,0.6-1.9,1.5-2.5,2.7c-0.6,1.1-0.9,2.5-0.9,3.9 c0,1.5,0.3,2.9,0.9,4.1c0.6,1.1,1.5,2,2.5,2.7c1.1,0.6,2.4,0.9,3.8,0.9c2.2,0,3.9-0.7,5.2-2.1C49.5,46.3,50.2,44.4,50.2,42.2z M79.4,28.1c-1.1-0.5-2.3-0.7-3.7-0.7c-3.2,0-5.6,1-7.3,3.1c0,0,0,0.1-0.1,0.1V28h-7.7v28.5h7.7V40.7c0-2.1,0.5-3.7,1.5-4.7 c1.1-1.1,2.4-1.6,4.1-1.6c0.8,0,1.5,0.1,2.1,0.4c0.6,0.2,1.2,0.6,1.6,1.1l4.8-5.5C81.5,29.2,80.5,28.5,79.4,28.1z M110,28v28.5h-7.7 v-2.8c-0.8,0.8-1.7,1.6-2.8,2.1C98,56.6,96.1,57,94.1,57c-2.6,0-4.9-0.6-7-1.9c-2.1-1.3-3.7-3.1-4.9-5.3c-1.2-2.2-1.8-4.8-1.8-7.5 c0-2.8,0.6-5.4,1.8-7.6c1.2-2.2,2.8-4,4.9-5.3c2.1-1.3,4.4-1.9,7-1.9c2,0,3.9,0.4,5.5,1.2c1.1,0.6,2,1.3,2.8,2.1V28H110z M102.8,42.2c0-1.5-0.3-2.8-0.9-3.9c-0.6-1.2-1.4-2.1-2.5-2.7c-1.1-0.7-2.3-1-3.8-1c-1.4,0-2.7,0.3-3.8,1c-1.1,0.6-1.9,1.5-2.5,2.7 c-0.6,1.1-0.9,2.5-0.9,3.9c0,1.5,0.3,2.9,0.9,4.1c0.6,1.1,1.5,2,2.5,2.7c1.1,0.6,2.4,0.9,3.8,0.9c2.2,0,3.9-0.7,5.2-2.1 C102.1,46.3,102.8,44.4,102.8,42.2z"/>
</svg>
