<svg width="156" height="42" viewBox="0 0 156 42" fill="white" xmlns="http://www.w3.org/2000/svg">
    <path d="M7.58426 32.3279H0.567213V1.09344H7.58426V32.3279ZM20.2141 10.2498C23.4659 10.2498 26.0331 11.7902 27.0172 13.9723V10.7633H33.9059V32.3279H27.1456V29.1188C25.9475 31.1726 23.4659 32.8413 20.2141 32.8413C13.9672 32.8413 9.43179 27.9636 9.43179 21.5456C9.43179 15.1275 13.9672 10.2498 20.2141 10.2498ZM21.626 27.0223C24.7067 27.0223 26.8888 24.7118 26.8888 21.5456C26.8888 18.3793 24.7067 16.0688 21.626 16.0688C18.5882 16.0688 16.4488 18.4221 16.4488 21.5456C16.4488 24.669 18.5882 27.0223 21.626 27.0223ZM50.7656 10.5921V17.5664H49.3536C45.5028 17.5664 43.9197 19.1495 43.9197 23.3426V32.3279H36.9026V10.7633H43.7058V15.042C44.6043 11.5762 47.2571 10.5921 50.081 10.5921H50.7656ZM61.3129 10.2498C64.5647 10.2498 67.1319 11.7902 68.116 13.9723V10.7633H75.0047V32.3279H68.2444V29.1188C67.0463 31.1726 64.5647 32.8413 61.3129 32.8413C55.066 32.8413 50.5306 27.9636 50.5306 21.5456C50.5306 15.1275 55.066 10.2498 61.3129 10.2498ZM62.7249 27.0223C65.8055 27.0223 67.9876 24.7118 67.9876 21.5456C67.9876 18.3793 65.8055 16.0688 62.7249 16.0688C59.687 16.0688 57.5476 18.4221 57.5476 21.5456C57.5476 24.669 59.687 27.0223 62.7249 27.0223ZM85.5319 4.34524C85.5319 6.61295 83.7777 8.32442 81.51 8.32442C79.2851 8.32442 77.488 6.61295 77.488 4.34524C77.488 2.12032 79.2851 0.408848 81.51 0.408848C83.7777 0.408848 85.5319 2.16311 85.5319 4.34524ZM78.0014 10.7633H85.0185V34.8095C85.0185 38.7459 82.7508 41.741 78.0014 41.741C76.7606 41.741 75.6054 41.741 74.4073 41.3987V35.6652C74.878 35.8364 75.3914 35.922 75.9477 35.922C77.2313 35.922 78.0014 35.3229 78.0014 33.9538V10.7633ZM98.8464 10.2498C106.505 10.2498 110.827 15.7266 110.827 21.5456C110.827 27.3646 106.505 32.8413 98.8464 32.8413C91.1875 32.8413 86.866 27.3646 86.866 21.5456C86.866 15.7266 91.1875 10.2498 98.8464 10.2498ZM98.8464 27.0223C102.269 27.0223 103.981 24.4123 103.981 21.5456C103.981 18.6788 102.269 16.0688 98.8464 16.0688C95.4234 16.0688 93.7119 18.6788 93.7119 21.5456C93.7119 24.4123 95.4234 27.0223 98.8464 27.0223ZM126.357 10.2498C132.604 10.2498 137.14 15.1275 137.14 21.5456C137.14 27.9636 132.604 32.8413 126.357 32.8413C123.106 32.8413 120.624 31.1726 119.426 29.1188V32.3279H112.666V1.09344H119.683V13.9723C120.667 11.7902 123.106 10.2498 126.357 10.2498ZM124.945 27.0223C127.983 27.0223 130.123 24.669 130.123 21.5456C130.123 18.4221 127.983 16.0688 124.945 16.0688C121.865 16.0688 119.683 18.3793 119.683 21.5456C119.683 24.7118 121.865 27.0223 124.945 27.0223ZM137.612 25.6103H143.388C143.517 27.1507 144.501 28.1348 146.383 28.1348C147.966 28.1348 148.95 27.279 148.95 26.1238C148.95 25.1397 148.394 24.5834 147.196 24.2839L144.244 23.5138C140.094 22.4869 138.254 20.5187 138.254 17.0102C138.254 12.7743 141.933 10.2498 146.34 10.2498C151.175 10.2498 153.871 13.031 154.256 16.9674H148.48C148.437 16.0261 147.881 14.9564 146.469 14.9564C145.228 14.9564 144.543 15.641 144.543 16.5823C144.543 17.5236 145.142 18.037 146.212 18.2938L150.02 19.3207C153.571 20.262 155.24 22.3157 155.24 25.4392C155.24 29.9318 151.047 32.8413 146.469 32.8413C141.805 32.8413 138.083 30.7875 137.612 25.6103Z"/>
</svg>
