<svg xmlns="http://www.w3.org/2000/svg" viewBox="0 0 574 100">
    <path fill="white" d="M173.72,68.24V75.1a2.4,2.4,0,0,1-2.34,2.34h-35A2.4,2.4,0,0,1,134,75.1V24.9a2.4,2.4,0,0,1,2.34-2.34h8.72a2.4,2.4,0,0,1,2.34,2.34V63.56a2.39,2.39,0,0,0,2.33,2.34h21.65A2.4,2.4,0,0,1,173.72,68.24ZM400.51,65.9H378.86a2.4,2.4,0,0,1-2.34-2.34V24.9a2.39,2.39,0,0,0-2.33-2.34h-8.72a2.4,2.4,0,0,0-2.34,2.34V75.1a2.4,2.4,0,0,0,2.34,2.34h35a2.4,2.4,0,0,0,2.34-2.34V68.24A2.4,2.4,0,0,0,400.51,65.9ZM236.8,49.84C236.8,67.31,224,79,206.9,79s-29.75-11.85-29.75-29.16c0-17.61,12.61-28.68,29.75-28.68S236.65,32.23,236.8,49.84Zm-14.17,0c0-9.51-6.39-16.68-15.73-16.68-9.19,0-15.58,7-15.58,16.68,0,9.83,6.39,17,15.58,17S222.63,59.67,222.63,49.84Zm63.55,12.79a2.36,2.36,0,0,0-3.11,0,14.24,14.24,0,0,1-10.13,3.9c-9.19,0-15.57-6.86-15.57-16.84,0-9.67,6.54-16.84,15.73-16.84a14.08,14.08,0,0,1,9.65,3.43,2.08,2.08,0,0,0,3.12,0l5.61-5.61a2.45,2.45,0,0,0-.16-3.43c-4.67-4.06-12-6.24-18.69-6.24-16.82,0-29.75,11.23-29.75,28.84,0,17.31,12.62,29,29.44,29,8.25,0,14.95-2.8,19.62-7.48a2.25,2.25,0,0,0,0-3.27Zm69,11.38A2.35,2.35,0,0,1,353,77.28h-9.65a2.19,2.19,0,0,1-2.18-1.4l-3.12-7.79a2.45,2.45,0,0,0-2.18-1.41H318a2.34,2.34,0,0,0-2.18,1.56l-3,7.64a2.34,2.34,0,0,1-2.18,1.56h-9.35a2.36,2.36,0,0,1-2.18-3.27l21-49.9a2.63,2.63,0,0,1,2.18-1.4h9.81a2.83,2.83,0,0,1,2.18,1.25ZM332.75,53.12l-3.58-9.82a2.32,2.32,0,0,0-4.36,0l-3.58,9.82a2.29,2.29,0,0,0,2.18,3.12h7.16A2.37,2.37,0,0,0,332.75,53.12ZM466.87,74a2.36,2.36,0,0,1-2.18,3.27H455a2.2,2.2,0,0,1-2.18-1.4l-3.12-7.79a2.44,2.44,0,0,0-2.18-1.41H429.48a2.36,2.36,0,0,0-2.18,1.56l-3,7.64a2.33,2.33,0,0,1-2.18,1.56h-9.34a2.35,2.35,0,0,1-2.18-3.27l21-49.9a2.62,2.62,0,0,1,2.18-1.4h9.81A3.18,3.18,0,0,1,446,24.12ZM444.28,53.12,440.7,43.3a2.32,2.32,0,0,0-4.36,0l-3.58,9.82a2.35,2.35,0,0,0,2.18,3.12h7.16A2.37,2.37,0,0,0,444.28,53.12ZM514.84,65.9H492.41a1.13,1.13,0,0,1-.93-1.87l22.9-28.37a9.31,9.31,0,0,0,2-5.77v-5a2.4,2.4,0,0,0-2.34-2.34H476.68a2.4,2.4,0,0,0-2.34,2.34v6.55a2.39,2.39,0,0,0,2.34,2.33H497.4a1.17,1.17,0,0,1,.93,1.88L475.9,63.41a9.29,9.29,0,0,0-2,5.77V75.1a2.43,2.43,0,0,0,2.49,2.34h38.47a2.4,2.4,0,0,0,2.34-2.34V68.24A2.4,2.4,0,0,0,514.84,65.9ZM571.7,22.56h-9.82a2.26,2.26,0,0,0-2,1.09l-10,17.46a1.16,1.16,0,0,1-2,0l-10-17.46a2.68,2.68,0,0,0-2-1.09H525.44a2.35,2.35,0,0,0-1.87,3.59l16.66,25.72a8.26,8.26,0,0,1,1.56,5V75.1a2.4,2.4,0,0,0,2.34,2.34h8.56A2.4,2.4,0,0,0,555,75.1V57a9.88,9.88,0,0,1,1.4-5.15l17.14-25.72A2.26,2.26,0,0,0,571.7,22.56Z" />
    <path fill="white" d="M70.3,2.81l-.63,1.56-5,11.85a2.07,2.07,0,0,0-2-2.8H22.12a2.07,2.07,0,0,0-1.87,3l9.67,23.25a2,2,0,0,0,1.87,1.24H51.12a2.21,2.21,0,0,1,2,3l-.63,1.4-5,11.86a2.09,2.09,0,0,0-2-2.81H39.12a2.06,2.06,0,0,0-1.87,3L53.62,96.41A2.59,2.59,0,0,1,51.28,100H41.14a2.53,2.53,0,0,1-2.33-1.56L.3,5.93A4.33,4.33,0,0,1,4.2,0H68.27A2.09,2.09,0,0,1,70.3,2.81Z" />
    <path fill="white" opacity=".5" d="M89.63,13.1,70.92,57.57a6.28,6.28,0,0,1-5.77,3.9H48.78a2.07,2.07,0,0,1-1.87-3l.63-1.4v-.16h0l5-11.85a2.12,2.12,0,0,0,1.87,3h4.37a2,2,0,0,0,1.87-1.25l9.82-23.24a2.13,2.13,0,0,0-1.87-3H65.93a2.06,2.06,0,0,1-1.87-3l.62-1.41v-.15l5-11.86a2.13,2.13,0,0,0,1.87,3H85.73A4.24,4.24,0,0,1,89.63,13.1Z" />
</svg>
