<svg xmlns="http://www.w3.org/2000/svg" viewBox="0 0 150 24">
    <path fill="white" d="M40.17,9.47A8.73,8.73,0,0,0,37.35,7.7a9.47,9.47,0,0,0-3.49-.64h0a9.52,9.52,0,0,0-3.5.64,8.52,8.52,0,0,0-2.81,1.77,8.24,8.24,0,0,0-1.87,2.69,8.68,8.68,0,0,0,0,6.71,8.2,8.2,0,0,0,1.87,2.68,8.85,8.85,0,0,0,2.81,1.79,9.69,9.69,0,0,0,7,0,8.89,8.89,0,0,0,2.82-1.79A8.18,8.18,0,0,0,42,18.87a8.62,8.62,0,0,0,0-6.71A8.22,8.22,0,0,0,40.17,9.47Zm-1.66,8.12a5,5,0,0,1-1,1.66,4.69,4.69,0,0,1-1.59,1.12,5.21,5.21,0,0,1-2,.4h0a5.08,5.08,0,0,1-2-.4,4.65,4.65,0,0,1-1.58-1.12,5.13,5.13,0,0,1-1-1.66,5.6,5.6,0,0,1-.37-2.06,5.77,5.77,0,0,1,.37-2.1,5,5,0,0,1,1-1.67,4.62,4.62,0,0,1,1.58-1.11,5.41,5.41,0,0,1,4.07,0,4.76,4.76,0,0,1,1.59,1.11,4.92,4.92,0,0,1,1,1.68,5.69,5.69,0,0,1,.37,2.09A5.4,5.4,0,0,1,38.51,17.59Zm-2.83-3.78a2.41,2.41,0,0,1,.73,1.73v0a2.5,2.5,0,0,1-.19,1,2.38,2.38,0,0,1-.53.8,2.84,2.84,0,0,1-.79.54,2.29,2.29,0,0,1-1,.21,2.26,2.26,0,0,1-1-.19,2.4,2.4,0,0,1-.81-.56,2.48,2.48,0,0,1-.55-.81,2.42,2.42,0,0,1-.19-1h0a2.43,2.43,0,0,1,.2-1,2.3,2.3,0,0,1,.53-.78,2.38,2.38,0,0,1,.8-.53,2.55,2.55,0,0,1,1-.19A2.42,2.42,0,0,1,35.68,13.81Zm-10-5.66q-.25,1-.9,2.91l-1.45,4-1.71,4.41L20,23.55h-3.8l-.69-2-1-2.82-1-3.15-.91-3-.92,3-1,3.15-.92,2.82-.67,2H5.28L2.69,17.32,1.08,13.08.24,10.49A6,6,0,0,1,0,9.2,1.75,1.75,0,0,1,.45,8a1.75,1.75,0,0,1,1.39-.51A3.66,3.66,0,0,1,3,7.64a3.35,3.35,0,0,1,.53.19l.87,3,1,3.15,1,3,.88,2.54L8,17.22l.84-2.64.85-2.74.77-2.64a2.94,2.94,0,0,1,.73-1.26,2.14,2.14,0,0,1,1.49-.43,3.57,3.57,0,0,1,1.17.17l.64.24.9,3,1,3.12L17.31,17l.85,2.49,1.72-4.82L21.5,9.43A3.49,3.49,0,0,1,22.26,8a2,2,0,0,1,1.43-.46,3.09,3.09,0,0,1,1.42.29ZM55.51,9.33a2,2,0,0,1-.31,1.05,2,2,0,0,1-.5.64,9.8,9.8,0,0,0-1.35-.48,7.05,7.05,0,0,0-1.83-.22q-3.77,0-3.77,4v9.27H44.08V13.23A5.8,5.8,0,0,1,45.9,8.67a7.35,7.35,0,0,1,5-1.61,8.34,8.34,0,0,1,3.3.56A1.82,1.82,0,0,1,55.51,9.33Zm85.16,8a23,23,0,0,0,4.56-.37,8.67,8.67,0,0,0,2.87-1,3.66,3.66,0,0,0,1.48-1.56,4.74,4.74,0,0,0,.42-2,4.65,4.65,0,0,0-1.79-3.72A6.89,6.89,0,0,0,146,7.49a10.2,10.2,0,0,0-6.46.2,8.16,8.16,0,0,0-2.76,1.75A8,8,0,0,0,135,12.16a9,9,0,0,0-.66,3.5,8.83,8.83,0,0,0,.68,3.56,7.53,7.53,0,0,0,1.85,2.62,7.71,7.71,0,0,0,2.73,1.61A10.48,10.48,0,0,0,143,24a13.35,13.35,0,0,0,2.36-.2,16.93,16.93,0,0,0,1.9-.44,8.17,8.17,0,0,0,1.37-.55l.81-.45L148,19.81l-.6.29a8,8,0,0,1-1,.38,8.14,8.14,0,0,1-1.27.32,8.93,8.93,0,0,1-1.55.13,6.17,6.17,0,0,1-3.81-1,4,4,0,0,1-1.07-1.16,4.06,4.06,0,0,1-.53-1.47l1.21.05Zm-2.58-2.56h0a5.68,5.68,0,0,1,.37-1.82,4.9,4.9,0,0,1,.95-1.58,4.48,4.48,0,0,1,1.51-1.11A5.06,5.06,0,0,1,143,9.87a4.47,4.47,0,0,1,2.43.61,2,2,0,0,1,1,1.82,2.32,2.32,0,0,1-.2.93,1.84,1.84,0,0,1-.8.79,5.74,5.74,0,0,1-1.71.58,14.74,14.74,0,0,1-2.86.22H139.5Zm-5.75-4.28a6.12,6.12,0,0,1,.55,2.69V23.55h-3.67V14.44a4.18,4.18,0,0,0-1-3.15,4.23,4.23,0,0,0-5.46.12,4.52,4.52,0,0,0-1.11,3.41v8.73H118V14.82a4.57,4.57,0,0,0-1.11-3.42,4.21,4.21,0,0,0-5.46-.09,4.19,4.19,0,0,0-1,3.17v9.07h-3.67V13.23a6.3,6.3,0,0,1,.54-2.69,5.38,5.38,0,0,1,1.5-1.91A6.49,6.49,0,0,1,111,7.46a9.48,9.48,0,0,1,2.8-.4,8.35,8.35,0,0,1,3.57.74A5.87,5.87,0,0,1,119.88,10a6,6,0,0,1,2.48-2.17,8.07,8.07,0,0,1,3.51-.74,9.6,9.6,0,0,1,2.77.38,6.47,6.47,0,0,1,2.22,1.16A5.42,5.42,0,0,1,132.34,10.51Zm-29.53-1A8.67,8.67,0,0,0,100,7.7a9.86,9.86,0,0,0-7,0,8.52,8.52,0,0,0-2.81,1.77,8.24,8.24,0,0,0-1.87,2.69,8.68,8.68,0,0,0,0,6.71,8.06,8.06,0,0,0,1.87,2.68A8.74,8.74,0,0,0,93,23.34a9.69,9.69,0,0,0,7,0,8.89,8.89,0,0,0,2.82-1.79,8.18,8.18,0,0,0,1.86-2.68,8.68,8.68,0,0,0,0-6.71A8.22,8.22,0,0,0,102.81,9.47Zm-1.66,8.12a5.2,5.2,0,0,1-1,1.66,4.69,4.69,0,0,1-1.59,1.12,5.28,5.28,0,0,1-2,.4h0a5.13,5.13,0,0,1-2-.4,4.61,4.61,0,0,1-1.57-1.12,5.13,5.13,0,0,1-1-1.66,5.4,5.4,0,0,1-.37-2.06,5.77,5.77,0,0,1,.37-2.1,5,5,0,0,1,1-1.67,4.68,4.68,0,0,1,1.57-1.11,5.43,5.43,0,0,1,4.08,0,4.76,4.76,0,0,1,1.59,1.11,5,5,0,0,1,1,1.68,5.69,5.69,0,0,1,.37,2.09A5.6,5.6,0,0,1,101.15,17.59ZM68.2,19.08A45,45,0,0,1,72,23.55H67.43l-1.66-1.87-2-1.92-2.13-1.83-2.07-1.62v7.24H55.94V1.69A1.53,1.53,0,0,1,56.45.42,2.26,2.26,0,0,1,57.9,0,4.3,4.3,0,0,1,59,.14l.64.21V13.4l1.18-.84,1.69-1.22,1.93-1.41,1.9-1.36a8.8,8.8,0,0,1,1.28-.79,3.66,3.66,0,0,1,1.52-.27A2.38,2.38,0,0,1,70.59,8a2.72,2.72,0,0,1,.77.78c-.59.52-1.21,1-1.85,1.48L67.11,12l-2.32,1.63-1.58,1.09A38.47,38.47,0,0,1,68.2,19.08Zm18.93-.35a4.56,4.56,0,0,1-1.92,3.83A9,9,0,0,1,79.69,24a17.55,17.55,0,0,1-3.15-.26,19.28,19.28,0,0,1-2.47-.59,12,12,0,0,1-1.69-.65,5.59,5.59,0,0,1-.83-.48l1.39-2.47a4.69,4.69,0,0,0,.8.42,14.59,14.59,0,0,0,1.44.53,16.09,16.09,0,0,0,1.94.46,13.68,13.68,0,0,0,2.39.19,7.3,7.3,0,0,0,2.73-.43,1.62,1.62,0,0,0,.39-2.84,5.67,5.67,0,0,0-2.41-.66l-2.52-.29a11.87,11.87,0,0,1-2.36-.46,6,6,0,0,1-1.85-.91,4,4,0,0,1-1.21-1.42,4.38,4.38,0,0,1-.44-2,4.78,4.78,0,0,1,.41-1.93,4.19,4.19,0,0,1,1.27-1.62,6.33,6.33,0,0,1,2.27-1.1,12.31,12.31,0,0,1,3.39-.4,14.56,14.56,0,0,1,5.2.74c1.23.49,1.85,1.13,1.85,1.91a1.57,1.57,0,0,1-.15.68,3.36,3.36,0,0,1-.32.51,2.1,2.1,0,0,1-.37.36,1,1,0,0,1-.29.18,4.39,4.39,0,0,0-.56-.4,6.6,6.6,0,0,0-1.18-.54A11,11,0,0,0,81.59,10a11.84,11.84,0,0,0-2.38-.21c-2.49,0-3.74.65-3.74,1.95A1.38,1.38,0,0,0,76.18,13a5,5,0,0,0,2,.59L81.5,14a9,9,0,0,1,4.15,1.45A3.8,3.8,0,0,1,87.13,18.73Z" />
</svg>
