<svg xmlns="http://www.w3.org/2000/svg" viewBox="0 0 222 60">
    <path fill="white" d="M26.08,44,47,16V44ZM60,0V60H0V0ZM55,5H5V55H55ZM13,16V44L33.92,16Z" />
    <path fill="white" opacity=".8" d="M125.52,34.52c0-4,0-8.09-.07-12.13-.12-4.61-2.47-7.81-6.71-8.94-5.51-1.47-11-.79-16.48.35-.19,0-.46.31-.46.47,0,1.88,0,3.77,0,5.73,1-.19,1.86-.36,2.73-.5a30.42,30.42,0,0,1,9.18-.48c2.48.34,4,1.53,4.42,3.82a51,51,0,0,1,.41,5.25h-1.23c-2.47,0-5-.07-7.42,0a25,25,0,0,0-4.8.57,7.5,7.5,0,0,0-6.12,6.86,17.85,17.85,0,0,0-.11,3.35c.3,5.14,3,8.08,8,8.75a15,15,0,0,0,6.31-.58c1.93-.58,3.82-1.32,5.78-2l.6,2h7.06a2.69,2.69,0,0,0,0-.43A48.58,48.58,0,0,1,125.52,34.52Zm-7.14,4.85A.88.88,0,0,1,118,40a18.89,18.89,0,0,1-7.5,1.93c-3.59,0-5.63-3-4.2-6.41a4.38,4.38,0,0,1,1.83-1.81,4.93,4.93,0,0,1,2.29-.55c2.62-.07,5.25,0,8,0C118.4,35.27,118.41,37.32,118.38,39.37ZM80.1,40l-.81,1.1h17v6H70c0-1.62,0-3.22,0-4.82a2,2,0,0,1,.47-.92L86.12,20.29c.22-.3.43-.62.74-1.07H70V13.31H96.33c0,1.62,0,3.27,0,4.92,0,.3-.37.6-.59.88Q87.92,29.58,80.1,40Zm107.25,1.33c-2.43-.36-4.53-1.34-5.14-4a30,30,0,0,1-.39-4.45h19.62c-.1-3.76,0-7.41-.34-11-.49-5-3.51-8.29-8.27-8.95a40.34,40.34,0,0,0-8.44-.12,11.38,11.38,0,0,0-4.65,1.48c-3.42,2-4.66,5.35-4.81,9.09-.17,4.46-.08,8.93,0,13.4a11.72,11.72,0,0,0,1.64,6c1.77,2.9,4.58,4,7.7,4.57a39.89,39.89,0,0,0,12-.07c1.84-.24,3.66-.64,5.45-1V40.15L199,40.7A34.67,34.67,0,0,1,187.35,41.37Zm-5.21-18.76A4.34,4.34,0,0,1,186,18.72a15,15,0,0,1,4.07,0c2.35.33,3.76,2.11,4,4.81.09,1.21,0,2.43,0,3.71H181.84C181.93,25.65,181.91,24.11,182.14,22.61ZM162.92,0h7.54V8.35h-7.54ZM222,41.32v5.49c-3.75.8-7.54,1.59-11.35.2-3-1.11-4.33-3.6-4.76-6.65a23.58,23.58,0,0,1-.19-3.26c0-5.59,0-28.58,0-30.95h7.13v7h8.06v6h-8c0,.42-.05.74-.05,1.05,0,5.23,0,10.47,0,15.7a13.09,13.09,0,0,0,.21,2.58c.41,2.11,1.55,3.15,3.68,3.17C218.48,41.72,220.21,41.46,222,41.32Zm-58.74-28h7v33.8h-7Zm-5.28,7c-.68-4.39-3-6.9-6.88-7.47a15.82,15.82,0,0,0-7.24.52c-1.89.6-3.73,1.37-5.67,2.09V13.28H131.1V60h7.1V45.92l.69.15a72.63,72.63,0,0,0,7.23,1.53,15.85,15.85,0,0,0,5.36-.36c4-1,6.48-4.36,6.67-9.23s.14-9.69.14-14.53A20.88,20.88,0,0,0,158,20.32ZM151.12,36.8c-.09,3.13-1.86,4.7-4.94,4.78a30.37,30.37,0,0,1-8-1.19c0-.32,0-.57,0-.82,0-5.88,0-11.75,0-17.62,0-.6.14-1,.73-1.14a57.86,57.86,0,0,1,6.72-2c3.31-.56,5.39,1.19,5.5,4.58C151.27,27.88,151.26,32.34,151.12,36.8Z" />
</svg>
