<svg width="762" height="116" viewBox="0 0 762 116" fill="none" xmlns="http://www.w3.org/2000/svg">
<path d="M675.996 83.0154H664.674L678.079 55.2913H689.401L675.996 83.0154ZM751.504 32.4374H638.118C630.433 32.4374 622.113 36.7589 619.537 42.0886L588.518 106.199C585.939 111.528 590.08 115.85 597.765 115.85H711.151C718.836 115.85 727.155 111.528 729.732 106.199L760.751 42.0886C763.329 36.7589 759.189 32.4374 751.504 32.4374Z" fill="white"/>
<path d="M92.3813 83.0153H81.0593L94.4648 55.2912H105.787L92.3813 83.0153ZM167.889 32.4373H105.535L89.5941 0.327255H24.6477L40.589 32.4373L0.235962 115.85H127.536C135.221 115.85 143.54 111.528 146.118 106.199L177.137 42.0885C179.715 36.7588 175.574 32.4373 167.889 32.4373Z" fill="white"/>
<path d="M242.969 55.2916H262.355L258.845 62.5523H239.459L242.969 55.2916ZM229.564 83.0157L233.074 75.7543H313.375L329.674 42.0889C332.251 36.7592 328.111 32.4377 320.426 32.4377H207.04C199.356 32.4377 191.036 36.7592 188.46 42.0889L157.439 106.199C154.862 111.529 159.003 115.85 166.687 115.85H293.988L309.865 83.0157H229.564Z" fill="white"/>
<path d="M472.963 32.4375H359.577C351.893 32.4375 343.573 36.7591 340.996 42.0888L305.309 115.85H370.257L399.538 55.2915H410.86L381.578 115.85H446.525L482.211 42.0888C484.788 36.7591 480.648 32.4375 472.963 32.4375Z" fill="white"/>
<path d="M538.67 83.0154L552.076 55.2913H601.811L612.881 32.4374H563.146L579.332 0.327346H514.386L462.513 106.199C459.936 111.528 464.076 115.85 471.761 115.85H572.529L588.406 83.0154H538.67Z" fill="white"/>
</svg>
