<svg xmlns="http://www.w3.org/2000/svg" viewBox="0 0 104 30">
    <path fill="white" d="M23.77,0l3.1,9.39h-10L13.82.08,10.75,9.39H.77L3.82,0h20Zm-18,24.44L8.83,15,.77,9.39A12.67,12.67,0,0,0,5.73,24.44Zm16.13,0-8.06-5.7-8.07,5.7L13.8,30ZM18.81,15l3.1,9.44a12.72,12.72,0,0,0,5-15Zm37.63,3.08a3.19,3.19,0,0,1-3.25,3.38,2.89,2.89,0,0,1-2.9-3.08v-9H46.67v9.55c0,3.64,2.12,5.66,5.12,5.66a4.76,4.76,0,0,0,4.6-2.88h.16v2.67h3.51v-15H56.44ZM81.05,9.19a4.58,4.58,0,0,0-4.6,2.73h-.16V4.19H72.78v20.2H76.4V15.61a3.16,3.16,0,0,1,3.3-3.44c1.92,0,3,1.21,3,3.23v9h3.62V14.8C86.32,11.21,84.25,9.19,81.05,9.19ZM67.81,20.05V12.17h3V9.39h-3V5.61H64.2V9.39H62v2.78H64.2v8.34c0,2.82,2.06,4.19,4.8,4.14a7.45,7.45,0,0,0,1.86-.26V21.62c-.25.05-.93.1-1.39.15C68.54,21.77,67.81,21.46,67.81,20.05ZM104,14.39c0,6.57-3,10.36-7.86,10.36s-7.85-3.84-7.85-10.36S91.23,4.14,96.14,4.14,104,7.83,104,14.39ZM92.11,16l7.7-5.45c-.67-2.23-1.91-3.39-3.67-3.39C93.61,7.17,92,9.65,92,14.39A8,8,0,0,0,92.11,16Zm8.17-1.62c0-.6,0-1.26-.11-1.86L92.42,18c.62,2.42,2,3.64,3.72,3.64C98.68,21.67,100.28,19.19,100.28,14.39Zm-55.62-.1V24.34H41.19V22.27h-.1a4.78,4.78,0,0,1-4.5,2.38c-2.94,0-5.17-1.57-5.17-4.5,0-3.38,3.16-4.29,5.84-4.59S41,15.2,41,14.19v0c0-1.51-.83-2.32-2.59-2.32a3.05,3.05,0,0,0-3.15,1.92l-3.36-.46c.83-2.72,3.26-4.14,6.51-4.14C41.4,9.14,44.71,10.35,44.66,14.29Zm-3.57,2.88c-.47.41-2.38.61-3.31.76-1.6.25-2.84.86-2.84,2.17s1.08,2,2.58,2c2.17,0,3.57-1.41,3.57-3.08Z" />
</svg>
