<svg xmlns="http://www.w3.org/2000/svg" viewBox="0 0 356 100">
    <path fill="white" d="M69.84,34.67h0c-4.25-3.78-10.23-5.81-17.27-5.81S39.23,31,34.71,34.6a20.06,20.06,0,0,0-7.55,14.85,2.31,2.31,0,0,0,2.18,2.44H39a2.31,2.31,0,0,0,2.28-2.13,7.71,7.71,0,0,1,3.1-5.49,13.18,13.18,0,0,1,8.16-2.44c3.57,0,6.14,1,7.77,2.43a7.61,7.61,0,0,1,2.52,5.95v.33a2.69,2.69,0,0,1-.09.8l-.08.2a1.32,1.32,0,0,1-.6.37,17.79,17.79,0,0,1-3.95.82c-1.94.26-4.46.53-7.59,1h0c-5.75.79-11.63,1.74-16.4,4.48a15.91,15.91,0,0,0-5.93,5.76A18.11,18.11,0,0,0,26,73.17a20.71,20.71,0,0,0,1.71,8.55,17.55,17.55,0,0,0,8.1,8.45,26.52,26.52,0,0,0,12.27,2.72c5.5,0,9.68-1.3,12.75-3.28a17.3,17.3,0,0,0,2.05-1.56v1.74a2.32,2.32,0,0,0,2.3,2.34h9a2.32,2.32,0,0,0,2.29-2.34V50.22A20.23,20.23,0,0,0,69.84,34.67Zm-10,41.61c-2.06,2.13-5.31,3.62-10.46,3.64-3.32,0-5.77-.73-7.23-1.81a5,5,0,0,1-1.62-1.84,5.72,5.72,0,0,1-.58-2.57v-.06a5.35,5.35,0,0,1,.74-2.87,7.65,7.65,0,0,1,3.73-2.86,25.75,25.75,0,0,1,6.35-1.61c3.26-.46,6.62-1,9.4-1.51,1-.2,1.88-.41,2.72-.64v3.78A11.68,11.68,0,0,1,59.8,76.28ZM24.16,9.33V17.2a2.32,2.32,0,0,1-2.3,2.34H17.94a14.42,14.42,0,0,0-2.37.11,2,2,0,0,0-1.1.44,2,2,0,0,0-.45.73,8.4,8.4,0,0,0-.4,2.94v6h8.24a2.31,2.31,0,0,1,2.3,2.33v7.87a2.31,2.31,0,0,1-2.3,2.33H13.62V89.79a2.31,2.31,0,0,1-2.29,2.33h-9A2.31,2.31,0,0,1,0,89.79V22.34a16.29,16.29,0,0,1,1.55-7.27A12.9,12.9,0,0,1,5.71,10.2,19.92,19.92,0,0,1,17.24,7h4.62A2.32,2.32,0,0,1,24.16,9.33ZM158.41,35.12c4.4,4.23,7.08,10.64,7.07,18.81V89.79a2.31,2.31,0,0,1-2.3,2.33h-9a2.31,2.31,0,0,1-2.3-2.33V54.59a15.15,15.15,0,0,0-1.87-8,9.33,9.33,0,0,0-4.91-4,15.74,15.74,0,0,0-12.35,1,10.89,10.89,0,0,0-4.65,5.69A18.83,18.83,0,0,0,127,56V89.79a2.3,2.3,0,0,1-2.29,2.33h-9a2.3,2.3,0,0,1-2.29-2.33V9.33A2.3,2.3,0,0,1,115.66,7h9A2.3,2.3,0,0,1,127,9.33V34.46a18.29,18.29,0,0,1,2.74-2.23,21.87,21.87,0,0,1,12.17-3.37h0A23.45,23.45,0,0,1,158.41,35.12Zm-50,54a2.33,2.33,0,0,1-1.7,2.7,24,24,0,0,1-6.15.73,19.85,19.85,0,0,1-9-2,14.72,14.72,0,0,1-6.74-6.89,17.35,17.35,0,0,1-1.52-7.38v-34H81.05a2.31,2.31,0,0,1-2.29-2.33V32.07a2.3,2.3,0,0,1,2.29-2.33h2.32V18.08a2.31,2.31,0,0,1,2.29-2.33h9A2.31,2.31,0,0,1,97,18.08V29.74h8.67A2.3,2.3,0,0,1,108,32.07v7.87a2.3,2.3,0,0,1-2.29,2.33H97V74.81a8.34,8.34,0,0,0,.51,3.32,1.93,1.93,0,0,0,.87,1,3.19,3.19,0,0,0,1,.32,12.47,12.47,0,0,0,2.11.14,14.35,14.35,0,0,0,1.61-.09,7.55,7.55,0,0,0,1.06-.17,2.27,2.27,0,0,1,1.79.3h0a2.33,2.33,0,0,1,1,1.53ZM316,52V65.23l-7.11,26.89h-4.22a2.3,2.3,0,0,1-2.29-2.33V52a13.18,13.18,0,0,0-.82-4.86,7.82,7.82,0,0,0-2-3,10.31,10.31,0,0,0-7-2.28A10.65,10.65,0,0,0,284.44,45a11.64,11.64,0,0,0-2.85,8.1V89.79a2.31,2.31,0,0,1-2.29,2.33h-9a2.31,2.31,0,0,1-2.3-2.33V51a8.87,8.87,0,0,0-2.61-6.62,9.78,9.78,0,0,0-6.92-2.52A10.8,10.8,0,0,0,250.61,45c-2,2.06-3.41,5.15-3.42,9.62v35.2a2.31,2.31,0,0,1-2.29,2.33h-9a2.31,2.31,0,0,1-2.29-2.33V32.07a2.31,2.31,0,0,1,2.29-2.33h8.82a2.31,2.31,0,0,1,2.3,2.33v2.3a20.84,20.84,0,0,1,14.37-5.51,19.61,19.61,0,0,1,16.3,8.07c3.62-4.8,9.89-8.07,17.46-8.07a20.34,20.34,0,0,1,14.81,5.75C313.78,38.53,316,44.42,316,52ZM199.52,28.86h0a27.8,27.8,0,0,0-21,9.13c-5.18,5.74-8.14,13.81-8.13,23s3,17.15,8.14,22.87a28.91,28.91,0,0,0,42.09,0c5.17-5.72,8.12-13.73,8.12-22.87s-3-17.3-8.14-23.06A27.76,27.76,0,0,0,199.52,28.86Zm11,45.94a14.38,14.38,0,0,1-22,0c-2.73-3.25-4.45-8-4.47-13.77V60.9c0-5.82,1.7-10.62,4.43-13.9a14.28,14.28,0,0,1,20.36-1.66,15.69,15.69,0,0,1,1.66,1.7c2.73,3.31,4.44,8.14,4.44,14s-1.71,10.51-4.45,13.76Z" />
    <path fill="white" opacity=".5" d="M355.52.91A2.33,2.33,0,0,0,353.68,0H342.06a2.31,2.31,0,0,0-2.24,1.71L314.08,97.09a2.31,2.31,0,0,0,1.64,2.83,2.35,2.35,0,0,0,.6.08h11.62a2.31,2.31,0,0,0,2.24-1.71L355.92,2.91a2.27,2.27,0,0,0-.4-2" />
</svg>
