<svg xmlns="http://www.w3.org/2000/svg" viewBox="0 0 110 20">
    <path fill="white" d="M23.39,4.28a.61.61,0,0,1-.59.48H14.19a.64.64,0,0,0-.59.48l-.8,3a.37.37,0,0,0,.37.48H18.9a.37.37,0,0,1,.37.47l-.85,3.28a.64.64,0,0,1-.59.48H12.1a.63.63,0,0,0-.59.48l-1.6,6.13a.64.64,0,0,1-.59.48H.38A.38.38,0,0,1,0,19.52l.53-1.9A.67.67,0,0,1,1,17.14c1-.26,3.48-.37,4.17-2.91l.17-.69L7.18,6.61l.16-.68C8,3.39,3.43,3.28,2.58,3a.44.44,0,0,1-.22-.48L2.9.64A.62.62,0,0,1,3.49.16H25.42c.27,0,.38.21.27.53ZM43,10.05c-1.4,5.45-3,7.62-4.39,8.78a6.42,6.42,0,0,1-4.23,1.11H27.72c-2.08,0-3.1-.37-3.63-1.11-.86-1.11-1.34-3.33.1-8.78s3-7.62,4.44-8.78A6.42,6.42,0,0,1,32.86.16h6.58c2.09,0,3.05.37,3.64,1.11C43.94,2.38,44.42,4.6,43,10.05ZM37.46,5c-.11-.16-.37-.21-1.23-.21H33.72c-.86,0-1.18,0-1.39.21s-.75.74-1.82,5.08-1,4.87-.81,5.08.38.21,1.23.21H33.5c.86,0,1.18-.05,1.39-.21s.75-.74,1.82-5.08S37.62,5.18,37.46,5Zm27-3.81c.64.9.85,1.85.16,4.61-.91,3.7-2.3,4.76-4.71,5.23v.06c1.87.47,2.89,1.11,2.25,4l-.81,4.4a.67.67,0,0,1-.58.52h-5.3a.35.35,0,0,1-.38-.42l.7-4c.21-1.42.11-1.69-.11-2s-.43-.37-1.71-.37H51.42a.62.62,0,0,0-.58.48l-1.45,5.82a.6.6,0,0,1-.59.47H43.61a.37.37,0,0,1-.37-.47L48,.63a.63.63,0,0,1,.59-.47h12.2C62.77.16,63.84.42,64.43,1.16ZM57.85,4.92c-.17-.16-.43-.21-1.56-.21H53.51a.63.63,0,0,0-.59.48l-.8,3.27a.38.38,0,0,0,.38.48h2.78v0c1.12,0,1.44-.06,1.66-.21.37-.27.64-.74.91-1.91S58.06,5.18,57.85,4.92ZM85.35,1c-.65-.74-1.77-1-3.91-1h-6.8a6.1,6.1,0,0,0-4.22,1.16C69,2.27,67.42,4.5,66.08,10s-.85,7.67.06,8.83c.59.8,1.6,1.17,3.69,1.17h6.69a6.57,6.57,0,0,0,4.33-1.17c1.39-1.11,2.73-2.8,3.85-7.62l.48-2a.37.37,0,0,0-.37-.48H75.56a.62.62,0,0,0-.59.48l-.75,3.17a.38.38,0,0,0,.37.48h3.86l-.06.16a3.53,3.53,0,0,1-1.12,2.17,2.39,2.39,0,0,1-1.34.21H73.2c-.91,0-1.18,0-1.28-.21S71.6,14,72.56,10s1.55-4.92,1.87-5.19.48-.21,1.39-.21h2.57c.91,0,1.12.05,1.23.21s.43.37.21,1.59a.35.35,0,0,0,.38.42h5a.61.61,0,0,0,.59-.47C86.36,3.28,86.09,1.9,85.35,1Zm24.28-1H91a.61.61,0,0,0-.59.48l-4.5,19a.38.38,0,0,0,.38.48h16a.62.62,0,0,0,.59-.53l.86-3.65a.38.38,0,0,0-.38-.48H93.58a.37.37,0,0,1-.37-.47l.59-2.44a.61.61,0,0,1,.59-.47h8.72a.64.64,0,0,0,.59-.48l.75-3.33a.38.38,0,0,0-.38-.48H95.35A.36.36,0,0,1,95,7.2l.48-2.12a.62.62,0,0,1,.59-.48h6.47a10,10,0,0,0,7.38-4C110.12.32,110,0,109.63,0Z" />
</svg>
