<svg xmlns="http://www.w3.org/2000/svg" viewBox="0 0 186 20">
    <path fill="white" opacity=".75" d="M56.87,12a5.87,5.87,0,0,0,.93-3.34,6,6,0,0,0-.92-3.35,6,6,0,0,0-2.63-2.19,9.79,9.79,0,0,0-4-.76H42.66V19.7h4V14.86h3.72l3.37,4.84h4.34l-3.92-5.59A5.83,5.83,0,0,0,56.87,12Zm-4.11-1.1a4.2,4.2,0,0,1-2.77.79H46.7V5.59H50a4.25,4.25,0,0,1,2.77.78,2.75,2.75,0,0,1,1,2.25A2.74,2.74,0,0,1,52.76,10.86ZM4,16.42H12.8V19.7H0V2.32H4ZM24.87,2.31,17.09,19.7h4.14L22.78,16h8.11l1.54,3.72h4.25L28.86,2.31Zm-.8,10.61,2.77-6.66,2.77,6.66ZM186,14.61a4.73,4.73,0,0,1-.84,2.72,5.57,5.57,0,0,1-2.5,2,10.33,10.33,0,0,1-4.07.72h0a14.28,14.28,0,0,1-4-.56,9.42,9.42,0,0,1-3.1-1.45l1.37-3a9.5,9.5,0,0,0,2.67,1.31,10.09,10.09,0,0,0,3.09.5,5,5,0,0,0,2.55-.51,1.53,1.53,0,0,0,.82-1.35,1.26,1.26,0,0,0-.49-1,3.39,3.39,0,0,0-1.24-.66c-.68-.21-1.37-.4-2.06-.55a28.82,28.82,0,0,1-3.27-.94,5.23,5.23,0,0,1-2.18-1.52,4.05,4.05,0,0,1-.92-2.78,4.78,4.78,0,0,1,.83-2.74,5.51,5.51,0,0,1,2.48-1.95A10.21,10.21,0,0,1,179.19,2a13.8,13.8,0,0,1,3.27.39,9.78,9.78,0,0,1,2.79,1.15L184,6.61a9.76,9.76,0,0,0-4.84-1.37,4.6,4.6,0,0,0-2.51.55,1.68,1.68,0,0,0-.81,1.44,1.42,1.42,0,0,0,.94,1.33,14.34,14.34,0,0,0,2.86.86,28,28,0,0,1,3.26.94,5.35,5.35,0,0,1,2.19,1.49A4,4,0,0,1,186,14.61Zm-40.2-2.76a4,4,0,0,1,.91,2.76,4.79,4.79,0,0,1-.83,2.72,5.66,5.66,0,0,1-2.51,2,10.29,10.29,0,0,1-4.07.72h0a14.26,14.26,0,0,1-4-.56A9.48,9.48,0,0,1,132.19,18l1.37-3a9.5,9.5,0,0,0,2.67,1.31,10.1,10.1,0,0,0,3.1.5,5,5,0,0,0,2.54-.51,1.53,1.53,0,0,0,.82-1.35,1.28,1.28,0,0,0-.48-1,3.53,3.53,0,0,0-1.25-.66c-.68-.21-1.37-.4-2.06-.55a28.82,28.82,0,0,1-3.27-.94,5.36,5.36,0,0,1-2.18-1.52,4,4,0,0,1-.91-2.78,4.78,4.78,0,0,1,.82-2.74,5.56,5.56,0,0,1,2.48-1.95A10.21,10.21,0,0,1,139.9,2a13.8,13.8,0,0,1,3.27.39A9.78,9.78,0,0,1,146,3.56l-1.25,3.05a9.76,9.76,0,0,0-4.84-1.37,4.56,4.56,0,0,0-2.5.55,1.66,1.66,0,0,0-.81,1.44,1.41,1.41,0,0,0,.93,1.33,14.56,14.56,0,0,0,2.86.86,28.82,28.82,0,0,1,3.27.94A5.39,5.39,0,0,1,145.8,11.85ZM70.65,2.31,62.86,19.7H67L68.55,16h8.11l1.55,3.72h4.24L74.64,2.31Zm4.74,10.61H69.85l2.77-6.66,2.77,6.66Zm16.5-4.79A5.8,5.8,0,0,0,91.18,11a5.85,5.85,0,0,0,.71,2.88,5,5,0,0,0,2,2,5.8,5.8,0,0,0,2.9.71,5.57,5.57,0,0,0,4.39-2.06l2.6,2.38a8.05,8.05,0,0,1-3.1,2.31,10.8,10.8,0,0,1-9-.36,8.55,8.55,0,0,1-3.39-3.2A8.83,8.83,0,0,1,87.09,11a8.84,8.84,0,0,1,1.23-4.64,8.7,8.7,0,0,1,3.39-3.2,10.93,10.93,0,0,1,9-.36,8.22,8.22,0,0,1,3.09,2.29l-2.6,2.38a5.59,5.59,0,0,0-4.39-2,5.9,5.9,0,0,0-2.9.71A5,5,0,0,0,91.89,8.13Zm59.53-5.81h15.22V5.59h-5.59V19.7h-4V5.59h-5.59ZM128.36.85a1.53,1.53,0,0,1,.12,1.08l-4.26,16.31h0a1.59,1.59,0,0,1-.18.4,1.1,1.1,0,0,1-.09.14.91.91,0,0,1-.08.13s-.09.05-.14.09a1.88,1.88,0,0,1-.23.16l-.23.11a1.28,1.28,0,0,1-.34.07h-.2a1.32,1.32,0,0,1-.34,0h0l-.06,0-.11-.05a1.38,1.38,0,0,1-.6-.43l-6-6a1.49,1.49,0,0,1,0-2.11,1.51,1.51,0,0,1,2.13-.05l0,.05h0l4.22,4.2,3-11.31L113.53,6.55l1,1a1.49,1.49,0,0,1,0,2.11,1.51,1.51,0,0,1-2.13.05l0-.05-2.74-2.72a1.49,1.49,0,0,1-.41-.54,1.11,1.11,0,0,1-.07-.16.25.25,0,0,0,0-.07,1.57,1.57,0,0,1,0-.23,1.29,1.29,0,0,1,0-.34.13.13,0,0,1,0-.06,1.43,1.43,0,0,1,.37-.82,1.46,1.46,0,0,1,.83-.41L126.59.05a1.51,1.51,0,0,1,1.09.13h0a1.37,1.37,0,0,1,.2.13l.06,0,.12.11.11.11,0,.07a1.37,1.37,0,0,1,.13.2Z" />
    <path fill="white"  d="M111.85,16.4a1.55,1.55,0,0,1,.07,2.2.46.46,0,0,1-.07.07l-.91.91a1.56,1.56,0,0,1-2.2-2.2l.91-.91A1.55,1.55,0,0,1,111.85,16.4Zm9-9a1.55,1.55,0,0,0-2.2.07l-6,6a1.56,1.56,0,0,0,2.2,2.2l6-6,.07-.07A1.55,1.55,0,0,0,120.83,7.42Z" />
</svg>
