<svg xmlns="http://www.w3.org/2000/svg" xmlns:xlink="http://www.w3.org/1999/xlink" viewBox="0 0 250 100">
    <path fill="white" d="M151.16,37l3.15,25.37h-5.18l-1.24-12.46q-.07-.63-.15-1.38L147.59,47c-.05-.49-.09-1-.13-1.45s-.07-.89-.09-1.26h-.23c-.22.82-.47,1.74-.73,2.77s-.53,2-.81,2.84l-3.71,12.43h-3.76l-3.79-12.61c-.25-.79-.51-1.66-.77-2.61s-.5-1.88-.7-2.82h-.3c0,.84-.11,1.74-.19,2.69s-.15,1.85-.22,2.66l-1.32,12.69H126L129,37H135l3.75,12c.23.72.46,1.5.71,2.34s.47,1.61.64,2.31h.15c.18-.7.4-1.48.66-2.35l.69-2.3,3.69-12Zm23.36,12.76a10.7,10.7,0,0,1,.6,3.57V54a3.68,3.68,0,0,1-.08.71H161.67a4.17,4.17,0,0,0,.38,1.75,5,5,0,0,0,1,1.45,4.68,4.68,0,0,0,1.46,1,4.42,4.42,0,0,0,1.82.37,4.16,4.16,0,0,0,2.12-.5,4.5,4.5,0,0,0,1.49-1.36h4.92a10.39,10.39,0,0,1-1.17,2.14,7.74,7.74,0,0,1-1.76,1.81,8.09,8.09,0,0,1-2.46,1.22,10.44,10.44,0,0,1-3.18.45,10.15,10.15,0,0,1-3.77-.69,8.86,8.86,0,0,1-3-2,9.16,9.16,0,0,1-2-3.05,10.24,10.24,0,0,1-.73-4,10.38,10.38,0,0,1,.62-3.61,8.63,8.63,0,0,1,1.8-3,8.48,8.48,0,0,1,2.89-2A9.7,9.7,0,0,1,166,44a9.52,9.52,0,0,1,3.92.76,8.5,8.5,0,0,1,2.87,2A8.7,8.7,0,0,1,174.52,49.76Zm-4.4,1.49a4.41,4.41,0,0,0-1.29-2.68,3.9,3.9,0,0,0-2.91-1.12,4.31,4.31,0,0,0-1.69.32,4,4,0,0,0-1.28.84,4.06,4.06,0,0,0-.84,1.2,4.3,4.3,0,0,0-.4,1.44Zm25.16-1.49a10.71,10.71,0,0,1,.61,3.57V54a3.68,3.68,0,0,1-.08.71H182.44a4.17,4.17,0,0,0,.38,1.75,5.18,5.18,0,0,0,1,1.45,4.73,4.73,0,0,0,1.47,1,4.42,4.42,0,0,0,1.82.37,4.18,4.18,0,0,0,2.12-.5,4.47,4.47,0,0,0,1.48-1.36h4.92a10.84,10.84,0,0,1-1.16,2.14,8,8,0,0,1-1.77,1.81,8.09,8.09,0,0,1-2.46,1.22,10.33,10.33,0,0,1-3.17.45,10.15,10.15,0,0,1-3.77-.69,8.9,8.9,0,0,1-3-2,9.13,9.13,0,0,1-2-3.05,10.24,10.24,0,0,1-.74-4,10.62,10.62,0,0,1,.62-3.61,8.81,8.81,0,0,1,1.81-3,8.48,8.48,0,0,1,2.89-2,9.69,9.69,0,0,1,3.92-.74,9.54,9.54,0,0,1,3.93.76,8.35,8.35,0,0,1,4.63,5Zm-4.39,1.49a4.47,4.47,0,0,0-1.29-2.68,3.9,3.9,0,0,0-2.91-1.12,4.31,4.31,0,0,0-1.69.32,3.85,3.85,0,0,0-1.28.84,4.28,4.28,0,0,0-.85,1.2,4.53,4.53,0,0,0-.39,1.44Zm30-7.26a6.65,6.65,0,0,0-1.92.28,8.12,8.12,0,0,0-1.67.73,6,6,0,0,0-1.33,1,5.48,5.48,0,0,0-.9,1.17,5.43,5.43,0,0,0-1.9-2.21,5.65,5.65,0,0,0-3.4-1,5.77,5.77,0,0,0-3,.8,7.58,7.58,0,0,0-2.18,2h-.07V44.55h-5V62.37h5.07V52.81a5,5,0,0,1,.94-3.26A3.13,3.13,0,0,1,208,48.42a2.62,2.62,0,0,1,2.23,1.1,4.53,4.53,0,0,1,.81,2.77V62.37h5.07V52.81a5.71,5.71,0,0,1,.3-2,4.32,4.32,0,0,1,.77-1.36,2.91,2.91,0,0,1,1.09-.8,3.34,3.34,0,0,1,1.29-.26,2.8,2.8,0,0,1,1.37.32,2.71,2.71,0,0,1,1,.85,3.82,3.82,0,0,1,.55,1.23,6.3,6.3,0,0,1,.17,1.47V62.37h5.07V52.14q0-4-1.85-6.08A6.27,6.27,0,0,0,220.86,44Zm29.14.56V62.37h-4.88V60.14H245a7.84,7.84,0,0,1-2.26,2,7,7,0,0,1-3.6.83,7.85,7.85,0,0,1-2.76-.54,7.71,7.71,0,0,1-2.65-1.69,9.1,9.1,0,0,1-2-3,10.84,10.84,0,0,1-.79-4.33,10.25,10.25,0,0,1,.7-3.89,9.07,9.07,0,0,1,1.87-2.95,8.23,8.23,0,0,1,6-2.53,6.93,6.93,0,0,1,1.89.24,6.73,6.73,0,0,1,1.52.63,5.7,5.7,0,0,1,1.18.89,8.28,8.28,0,0,1,.89,1h.15V44.55Zm-4.81,9a6.24,6.24,0,0,0-.34-2.12,4.68,4.68,0,0,0-.93-1.64,4.32,4.32,0,0,0-1.43-1,4.23,4.23,0,0,0-1.77-.38,4.38,4.38,0,0,0-2.06.45A4.51,4.51,0,0,0,237.21,50a5,5,0,0,0-.86,1.64,6.25,6.25,0,0,0-.28,1.88,6.48,6.48,0,0,0,.28,1.9,5.14,5.14,0,0,0,.84,1.65,4,4,0,0,0,1.43,1.15,4.58,4.58,0,0,0,2.07.43,3.94,3.94,0,0,0,1.7-.37,4.57,4.57,0,0,0,1.43-1,5.28,5.28,0,0,0,1-1.62A5.55,5.55,0,0,0,245.19,53.52Z" />
    <path fill="white" opacity=".25" d="M103.67,45.54c-1-5-3.93-7.21-6.12-8.19l1-.31h0s6.53-1.87,5.1-7.65-7.36-3.58-7.36-3.58h0s-.68-4-5.62-8.15-11-2.37-11-2.37h0s-1.38-6.47-6.78-6h0s-3.9-8.19-13-6h0S51.42-4,44,3.1v0S31.29,1.26,31.88,9.8h0s-7.07-1.26-7.91,6c0,0-5.81-4.13-12.37,1.35S8.41,27.69,8.42,27.72A6.5,6.5,0,0,0,.69,31.59C-1.67,37,2.78,38.71,2.78,38.71L3.9,39A11.6,11.6,0,0,0,.33,45.54C-1.16,52.74,2.8,55.13,4,55.69a7.41,7.41,0,0,0-1.18,7.15c1.77,6,8.69,5.91,8.7,5.91h0c-6,7,2.81,8.67,2.82,8.68h0c-1.21,2.29-3,7.64,4.52,11.23s13.57-2.15,13.57-2.15-4.18,3.81.69,7.69,8.63.43,8.63.43-.75,4.43,9.89,5.29S62.4,94.65,62.4,94.63h0s9.44,1.42,11-5.49c0,0,7.59,3.13,13.85-2.39,5.94-5.25,2-10,2-10,9.47-1.46,3.39-8,3.39-8,13.08-3.94,9.86-10,7.21-13C100.86,55.33,105.23,53.05,103.67,45.54Z" />
    <path fill="white" d="M70.15,34.76S70,30.1,66,28l-1.43,1.87s3.7,3.14,2.38,5.94-4.53,3.39-7.64-.46c0,0-1.79,7-7.28,7s-7.28-7-7.28-7c-3.11,3.85-6.33,3.26-7.64.46s2.38-5.94,2.38-5.94L38,28c-4.06,2.1-4.18,6.76-4.18,6.76s-19,3.5-15.4,9.22,16.6,1.87,16.6,1.87c3.22,23.2,8,25.42,11,27.63s6.09-3.38,4.54-4.31-4.66-3.73-3.35-5.25S52,65.44,52,65.44s3.46-3,4.77-1.52S55,68.24,53.43,69.17,55,75.7,58,73.48s7.76-4.43,11-27.63c0,0,13,3.84,16.59-1.87s-15.4-9.22-15.4-9.22Z" />
</svg>
