<svg id="Group_22" data-name="Group 22" xmlns="http://www.w3.org/2000/svg" xmlns:xlink="http://www.w3.org/1999/xlink" width="574.742" height="160" viewBox="0 0 574.742 160">
    <path d="M35.183,20.2H27.743c-6.373.014-13.091,1.263-18.555,5.059a20.6,20.6,0,0,0-6.7,7.711A25.461,25.461,0,0,0,0,44.48V151.243a3.692,3.692,0,0,0,3.692,3.691H18.226a3.692,3.692,0,0,0,3.692-3.691V76.03H35.183a3.693,3.693,0,0,0,3.692-3.692V59.88a3.692,3.692,0,0,0-3.692-3.691H21.917V46.729a13.1,13.1,0,0,1,.641-4.655,2.92,2.92,0,0,1,.724-1.153,3.275,3.275,0,0,1,1.765-.7,24.109,24.109,0,0,1,3.82-.182h6.316a3.692,3.692,0,0,0,3.692-3.691V23.889A3.693,3.693,0,0,0,35.183,20.2" transform="translate(0 -8.258)" fill="#2d3540"/>
    <path d="M141.286,87.923c-6.85-5.976-16.477-9.186-27.8-9.183-11.513,0-21.459,3.294-28.721,9.079A31.577,31.577,0,0,0,72.6,111.329a3.689,3.689,0,0,0,3.687,3.864h15.4a3.688,3.688,0,0,0,3.677-3.371,12.132,12.132,0,0,1,4.984-8.683c3.015-2.3,7.454-3.864,13.142-3.864,5.747,0,9.874,1.562,12.507,3.847a11.94,11.94,0,0,1,4.046,9.419v.519a4.771,4.771,0,0,1-.134,1.272l-.139.317c-.061.078-.221.277-.956.583a29.065,29.065,0,0,1-6.365,1.3c-3.116.415-7.171.839-12.219,1.516h.009c-9.265,1.249-18.726,2.76-26.392,7.092a25.39,25.39,0,0,0-9.542,9.119,28.18,28.18,0,0,0-3.612,14.616,32.4,32.4,0,0,0,2.751,13.531,27.993,27.993,0,0,0,13.04,13.376,43.318,43.318,0,0,0,19.739,4.3c8.859.009,15.579-2.057,20.525-5.2a27.348,27.348,0,0,0,3.3-2.457v2.757a3.692,3.692,0,0,0,3.692,3.691h14.535a3.691,3.691,0,0,0,3.691-3.691V112.54c.027-9.952-3.81-18.659-10.674-24.617m-11.244,52.648c-.01,5.226-1.6,9.863-4.91,13.223s-8.545,5.733-16.835,5.754c-5.336.008-9.285-1.159-11.641-2.855a8.137,8.137,0,0,1-2.6-2.921,8.9,8.9,0,0,1-.93-4.066l0-.034v-.06a8.36,8.36,0,0,1,1.188-4.54,12.344,12.344,0,0,1,6-4.536A42.08,42.08,0,0,1,110.536,138c5.253-.738,10.659-1.523,15.139-2.4,1.6-.317,3.027-.652,4.366-1.007Z" transform="translate(-28.902 -32.193)" fill="#2d3540"/>
    <path d="M258.134,144.727a3.7,3.7,0,0,0-2.881-.47,13.91,13.91,0,0,1-1.7.268,25.176,25.176,0,0,1-2.591.141,19.645,19.645,0,0,1-3.389-.216,5.308,5.308,0,0,1-1.6-.511,3.052,3.052,0,0,1-1.4-1.589,12.908,12.908,0,0,1-.826-5.24V85.6l13.958,0a3.693,3.693,0,0,0,3.692-3.692V69.454a3.692,3.692,0,0,0-3.692-3.691H243.747V47.306a3.692,3.692,0,0,0-3.691-3.692H225.521a3.693,3.693,0,0,0-3.692,3.692V65.763H218.1a3.691,3.691,0,0,0-3.691,3.691V81.912A3.692,3.692,0,0,0,218.1,85.6h3.726V139.36a26.994,26.994,0,0,0,2.46,11.686,23.408,23.408,0,0,0,10.842,10.9,32.281,32.281,0,0,0,14.441,3.25,39.769,39.769,0,0,0,9.893-1.148,3.692,3.692,0,0,0,2.73-4.277l-2.423-12.632a3.69,3.69,0,0,0-1.639-2.417" transform="translate(-87.664 -17.832)" fill="#2d3540"/>
    <path  d="M354.539,54.8a35.609,35.609,0,0,0-19.595,5.327,29.447,29.447,0,0,0-4.4,3.538V23.889a3.693,3.693,0,0,0-3.692-3.692H312.318a3.692,3.692,0,0,0-3.691,3.692V151.243a3.691,3.691,0,0,0,3.691,3.691h14.535a3.692,3.692,0,0,0,3.692-3.691V97.774a29.141,29.141,0,0,1,1.744-10.529,17.348,17.348,0,0,1,7.493-9.01,23.25,23.25,0,0,1,11.815-2.9,23.621,23.621,0,0,1,8.052,1.283,14.981,14.981,0,0,1,7.9,6.327c1.866,3.026,3.018,7.155,3.02,12.577v55.718a3.692,3.692,0,0,0,3.692,3.691H388.8a3.691,3.691,0,0,0,3.691-3.691V94.487c.024-12.941-4.293-23.08-11.367-29.785s-16.61-9.9-26.586-9.9" transform="translate(-126.184 -8.258)" fill="#2d3540"/>
    <path d="M510.714,78.74c-13.625-.017-25.534,5.321-33.859,14.437-8.34,9.1-13.1,21.863-13.091,36.493-.006,14.469,4.758,27.141,13.1,36.2,8.323,9.067,20.225,14.4,33.852,14.385,13.665.017,25.572-5.318,33.884-14.388,8.332-9.058,13.071-21.73,13.065-36.2.006-14.63-4.751-27.389-13.093-36.493-8.323-9.116-20.232-14.454-33.857-14.437m17.7,72.715a23.364,23.364,0,0,1-35.36,0c-4.4-5.154-7.156-12.669-7.2-21.806v-.026l0-.176c0-9.211,2.74-16.8,7.135-22a23.239,23.239,0,0,1,35.435.057c4.4,5.243,7.15,12.895,7.15,22.166,0,9.125-2.757,16.632-7.162,21.785" transform="translate(-189.613 -32.193)" fill="#2d3540"/>
    <path d="M768.54,115.307c.018-11.945-3.569-21.266-9.785-27.48S744,78.725,734.913,78.74c-12.179,0-22.261,5.165-28.1,12.764-5.5-7.662-14.9-12.787-26.229-12.764a33.873,33.873,0,0,0-23.129,8.718V83.816a3.692,3.692,0,0,0-3.692-3.692H639.571a3.693,3.693,0,0,0-3.692,3.692v91.362a3.692,3.692,0,0,0,3.692,3.691h14.535a3.692,3.692,0,0,0,3.692-3.691V119.46c.018-7.08,2.252-11.971,5.5-15.23a17.605,17.605,0,0,1,12.61-4.957,15.922,15.922,0,0,1,11.138,3.991,13.946,13.946,0,0,1,4.2,10.486v61.427a3.691,3.691,0,0,0,3.691,3.691h14.535a3.692,3.692,0,0,0,3.692-3.691v-58.14c.008-5.416,1.7-9.782,4.591-12.82,2.908-3.022,7.116-4.925,13-4.946,4.61,0,8.56,1.225,11.26,3.619a12.333,12.333,0,0,1,3.286,4.73,20.46,20.46,0,0,1,1.315,7.685v59.87a3.691,3.691,0,0,0,3.691,3.691H757.1L768.54,136.3Z" transform="translate(-259.983 -32.193)" fill="#2d3540"/>
    <path d="M918.449,1.448A3.692,3.692,0,0,0,915.521,0H897a3.686,3.686,0,0,0-3.564,2.734L852.429,155.351A3.691,3.691,0,0,0,855.993,160h18.518a3.688,3.688,0,0,0,3.565-2.734L919.085,4.649a3.684,3.684,0,0,0-.636-3.2" transform="translate(-348.47)" fill="#9e98ff"/>
</svg>
