<?xml version="1.0" encoding="UTF-8" standalone="no"?>
<svg
   xmlns:dc="http://purl.org/dc/elements/1.1/"
   xmlns:cc="http://creativecommons.org/ns#"
   xmlns:rdf="http://www.w3.org/1999/02/22-rdf-syntax-ns#"
   xmlns:svg="http://www.w3.org/2000/svg"
   xmlns="http://www.w3.org/2000/svg"
   xmlns:sodipodi="http://sodipodi.sourceforge.net/DTD/sodipodi-0.dtd"
   xmlns:inkscape="http://www.inkscape.org/namespaces/inkscape"
   width="3041.1951"
   height="793.49701"
   viewBox="0 0 804.64951 209.94609"
   version="1.1"
   id="svg1454"
   inkscape:version="1.0.2 (e86c8708, 2021-01-15)"
   sodipodi:docname="hyvor branded logo.svg">
  <defs
     id="defs1448" />
  <sodipodi:namedview
     id="base"
     pagecolor="#ffffff"
     bordercolor="#666666"
     borderopacity="1.0"
     inkscape:pageopacity="0.0"
     inkscape:pageshadow="2"
     inkscape:zoom="0.10216148"
     inkscape:cx="1247.3824"
     inkscape:cy="707.82614"
     inkscape:document-units="mm"
     inkscape:current-layer="layer1"
     inkscape:document-rotation="0"
     showgrid="false"
     inkscape:window-width="1252"
     inkscape:window-height="748"
     inkscape:window-x="0"
     inkscape:window-y="25"
     inkscape:window-maximized="0"
     units="px" />
  <metadata
     id="metadata1451">
    <rdf:RDF>
      <cc:Work
         rdf:about="">
        <dc:format>image/svg+xml</dc:format>
        <dc:type
           rdf:resource="http://purl.org/dc/dcmitype/StillImage" />
        <dc:title></dc:title>
      </cc:Work>
    </rdf:RDF>
  </metadata>
  <g
     inkscape:label="Layer 1"
     inkscape:groupmode="layer"
     id="layer1">
    <g
       id="g1446"
       transform="matrix(0.26458333,0,0,0.26458333,645.88576,-564.31362)">
      <g
         aria-label="HYVOR"
         id="text912-3"
         style="font-weight:800;font-size:671.413px;line-height:1.25;font-family:Nunito;-inkscape-font-specification:'Nunito Ultra-Bold';word-spacing:0px;stroke-width:0.999999">
        <path
           style="color:#000000;font-style:normal;font-variant:normal;font-weight:normal;font-stretch:normal;font-size:medium;line-height:1.25;font-family:Nunito;-inkscape-font-specification:'Nunito Ultra-Bold';font-variant-ligatures:normal;font-variant-position:normal;font-variant-caps:normal;font-variant-numeric:normal;font-variant-alternates:normal;font-variant-east-asian:normal;font-feature-settings:normal;font-variation-settings:normal;text-indent:0;text-align:start;text-decoration:none;text-decoration-line:none;text-decoration-style:solid;text-decoration-color:#000000;letter-spacing:normal;word-spacing:0px;text-transform:none;writing-mode:lr-tb;direction:ltr;text-orientation:mixed;dominant-baseline:auto;baseline-shift:baseline;text-anchor:start;white-space:normal;shape-padding:0;shape-margin:0;inline-size:0;clip-rule:nonzero;display:inline;overflow:visible;visibility:visible;opacity:1;isolation:auto;mix-blend-mode:normal;color-interpolation:sRGB;color-interpolation-filters:linearRGB;solid-color:#000000;solid-opacity:1;vector-effect:none;fill:#000000;fill-opacity:1;fill-rule:nonzero;stroke:none;stroke-width:0.999999;stroke-linecap:butt;stroke-linejoin:miter;stroke-miterlimit:4;stroke-dasharray:none;stroke-dashoffset:0;stroke-opacity:1;color-rendering:auto;image-rendering:auto;shape-rendering:auto;text-rendering:auto;enable-background:accumulate;stop-color:#000000;stop-opacity:1"
           d="m -1692.1112,2772.3032 c -17.0091,0 -29.9898,-4.6999 -38.9419,-14.0997 -8.9522,-9.3997 -13.4283,-22.6042 -13.4283,-39.6133 v -378.0056 c 0,-35.8087 17.4567,-53.713 52.3702,-53.713 34.4659,0 51.6988,17.9043 51.6988,53.713 v 142.3396 h 220.2235 v -142.3396 c 0,-35.8087 17.2329,-53.713 51.6988,-53.713 34.9135,0 52.3702,17.9043 52.3702,53.713 v 378.0056 c 0,17.0091 -4.4761,30.2136 -13.4283,39.6133 -8.9521,9.3998 -21.9328,14.0997 -38.9419,14.0997 -16.5615,0 -29.3184,-4.6999 -38.2706,-14.0997 -8.9521,-9.3997 -13.4282,-22.6042 -13.4282,-39.6133 v -149.0537 h -220.2235 v 149.0537 c 0,35.8087 -17.2329,53.713 -51.6988,53.713 z"
           id="path1399" />
        <path
           style="color:#000000;font-style:normal;font-variant:normal;font-weight:normal;font-stretch:normal;font-size:medium;line-height:1.25;font-family:Nunito;-inkscape-font-specification:'Nunito Ultra-Bold';font-variant-ligatures:normal;font-variant-position:normal;font-variant-caps:normal;font-variant-numeric:normal;font-variant-alternates:normal;font-variant-east-asian:normal;font-feature-settings:normal;font-variation-settings:normal;text-indent:0;text-align:start;text-decoration:none;text-decoration-line:none;text-decoration-style:solid;text-decoration-color:#000000;letter-spacing:normal;word-spacing:0px;text-transform:none;writing-mode:lr-tb;direction:ltr;text-orientation:mixed;dominant-baseline:auto;baseline-shift:baseline;text-anchor:start;white-space:normal;shape-padding:0;shape-margin:0;inline-size:0;clip-rule:nonzero;display:inline;overflow:visible;visibility:visible;opacity:1;isolation:auto;mix-blend-mode:normal;color-interpolation:sRGB;color-interpolation-filters:linearRGB;solid-color:#000000;solid-opacity:1;vector-effect:none;fill:#000000;fill-opacity:1;fill-rule:nonzero;stroke:none;stroke-width:0.999999;stroke-linecap:butt;stroke-linejoin:miter;stroke-miterlimit:4;stroke-dasharray:none;stroke-dashoffset:0;stroke-opacity:1;color-rendering:auto;image-rendering:auto;shape-rendering:auto;text-rendering:auto;enable-background:accumulate;stop-color:#000000;stop-opacity:1"
           d="m -1056.7551,2772.3032 c -17.0091,0 -29.9898,-4.6999 -38.942,-14.0997 -8.9521,-9.3997 -13.4282,-22.828 -13.4282,-40.2847 v -165.1676 l -136.9683,-194.7098 c -6.2665,-9.3998 -8.9522,-19.471 -8.0569,-30.2136 0.8952,-11.1902 5.3713,-20.8138 13.4282,-28.8708 8.057,-8.0569 19.471,-12.0854 34.2421,-12.0854 21.0376,0 39.1657,11.1902 54.3844,33.5706 l 96.6835,139.654 96.68349,-139.654 c 8.50456,-12.0854 16.78532,-20.5899 24.84228,-25.5136 8.50457,-5.3713 18.35196,-8.057 29.54217,-8.057 14.32348,0 25.28989,3.8047 32.89924,11.414 8.05695,7.1617 12.30924,16.3377 12.75685,27.528 0.89521,10.7426 -2.68566,21.9328 -10.74261,33.5706 l -135.62542,194.0384 v 164.4962 c 0,36.2563 -17.2329,54.3844 -51.6988,54.3844 z"
           id="path1401" />
        <path
           style="color:#000000;font-style:normal;font-variant:normal;font-weight:normal;font-stretch:normal;font-size:medium;line-height:1.25;font-family:Nunito;-inkscape-font-specification:'Nunito Ultra-Bold';font-variant-ligatures:normal;font-variant-position:normal;font-variant-caps:normal;font-variant-numeric:normal;font-variant-alternates:normal;font-variant-east-asian:normal;font-feature-settings:normal;font-variation-settings:normal;text-indent:0;text-align:start;text-decoration:none;text-decoration-line:none;text-decoration-style:solid;text-decoration-color:#000000;letter-spacing:normal;word-spacing:0px;text-transform:none;writing-mode:lr-tb;direction:ltr;text-orientation:mixed;dominant-baseline:auto;baseline-shift:baseline;text-anchor:start;white-space:normal;shape-padding:0;shape-margin:0;inline-size:0;clip-rule:nonzero;display:inline;overflow:visible;visibility:visible;opacity:1;isolation:auto;mix-blend-mode:normal;color-interpolation:sRGB;color-interpolation-filters:linearRGB;solid-color:#000000;solid-opacity:1;vector-effect:none;fill:#000000;fill-opacity:1;fill-rule:nonzero;stroke:none;stroke-width:0.999999;stroke-linecap:butt;stroke-linejoin:miter;stroke-miterlimit:4;stroke-dasharray:none;stroke-dashoffset:0;stroke-opacity:1;color-rendering:auto;image-rendering:auto;shape-rendering:auto;text-rendering:auto;enable-background:accumulate;stop-color:#000000;stop-opacity:1"
           d="m -598.33735,2772.3032 c -14.32348,0 -26.18511,-3.1333 -35.58489,-9.3998 -8.95217,-6.7141 -16.33772,-16.7853 -22.15663,-30.2136 l -169.19608,-375.9912 c -8.95217,-20.1424 -8.95217,-36.7039 0,-49.6846 9.39978,-13.4283 23.49945,-20.1424 42.29902,-20.1424 15.21869,0 26.63271,3.5809 34.24206,10.7426 8.05696,6.7141 14.9949,16.7853 20.81381,30.2136 l 131.59695,304.8215 131.59695,-305.4929 c 5.37131,-12.9807 12.08544,-22.8281 20.14239,-29.5422 8.50457,-7.1617 19.91859,-10.7426 34.24207,-10.7426 17.45674,0 30.43739,6.7141 38.94195,20.1424 8.95217,12.9807 8.95217,29.5422 0,49.6846 l -169.19608,375.9912 c -6.26652,13.4283 -13.87587,23.4995 -22.82804,30.2136 -8.50457,6.2665 -20.14239,9.3998 -34.91348,9.3998 z"
           id="path1403" />
        <path
           style="color:#000000;font-style:normal;font-variant:normal;font-weight:normal;font-stretch:normal;font-size:medium;line-height:1.25;font-family:Nunito;-inkscape-font-specification:'Nunito Ultra-Bold';font-variant-ligatures:normal;font-variant-position:normal;font-variant-caps:normal;font-variant-numeric:normal;font-variant-alternates:normal;font-variant-east-asian:normal;font-feature-settings:normal;font-variation-settings:normal;text-indent:0;text-align:start;text-decoration:none;text-decoration-line:none;text-decoration-style:solid;text-decoration-color:#000000;letter-spacing:normal;word-spacing:0px;text-transform:none;writing-mode:lr-tb;direction:ltr;text-orientation:mixed;dominant-baseline:auto;baseline-shift:baseline;text-anchor:start;white-space:normal;shape-padding:0;shape-margin:0;inline-size:0;clip-rule:nonzero;display:inline;overflow:visible;visibility:visible;opacity:1;isolation:auto;mix-blend-mode:normal;color-interpolation:sRGB;color-interpolation-filters:linearRGB;solid-color:#000000;solid-opacity:1;vector-effect:none;fill:#000000;fill-opacity:1;fill-rule:nonzero;stroke:none;stroke-width:0.999999;stroke-linecap:butt;stroke-linejoin:miter;stroke-miterlimit:4;stroke-dasharray:none;stroke-dashoffset:0;stroke-opacity:1;color-rendering:auto;image-rendering:auto;shape-rendering:auto;text-rendering:auto;enable-background:accumulate;stop-color:#000000;stop-opacity:1"
           d="m -100.79934,2773.646 c -46.55131,0 -87.5075,-10.0712 -122.86859,-30.2135 -34.91347,-20.59 -62.2176,-49.0132 -81.91239,-85.2695 -19.24717,-36.7039 -28.87076,-79.6744 -28.87076,-128.9113 0,-49.2369 9.62359,-91.9836 28.87076,-128.2399 19.69479,-36.7039 46.99892,-65.1271 81.91239,-85.2694 34.91348,-20.1424 75.86968,-30.2136 122.86859,-30.2136 46.998909,0 87.955102,10.0712 122.868579,30.2136 35.361086,20.1423 62.665216,48.5655 81.912391,85.2694 19.69478,36.2563 29.54217,78.7792 29.54217,127.5685 0,49.2369 -9.84739,92.2074 -29.54217,128.9113 -19.247175,36.7039 -46.551305,65.3509 -81.912391,85.9409 -34.913477,20.1423 -75.86967,30.2135 -122.868579,30.2135 z m 0,-88.6265 c 39.389561,0 70.050755,-13.6521 91.9835798,-40.9562 22.3804342,-27.7517 33.5706512,-66.0223 33.5706512,-114.8116 0,-49.2369 -10.966413,-87.2837 -32.8992382,-114.1402 -21.9328248,-27.3041 -52.8178228,-40.9562 -92.6549928,-40.9562 -38.94196,0 -69.60316,13.6521 -91.98359,40.9562 -21.93283,26.8565 -32.89924,64.9033 -32.89924,114.1402 0,48.7893 10.96641,87.0599 32.89924,114.8116 22.38043,27.3041 53.04163,40.9562 91.98359,40.9562 z"
           id="path1405" />
        <path
           style="color:#000000;font-style:normal;font-variant:normal;font-weight:normal;font-stretch:normal;font-size:medium;line-height:1.25;font-family:Nunito;-inkscape-font-specification:'Nunito Ultra-Bold';font-variant-ligatures:normal;font-variant-position:normal;font-variant-caps:normal;font-variant-numeric:normal;font-variant-alternates:normal;font-variant-east-asian:normal;font-feature-settings:normal;font-variation-settings:normal;text-indent:0;text-align:start;text-decoration:none;text-decoration-line:none;text-decoration-style:solid;text-decoration-color:#000000;letter-spacing:normal;word-spacing:0px;text-transform:none;writing-mode:lr-tb;direction:ltr;text-orientation:mixed;dominant-baseline:auto;baseline-shift:baseline;text-anchor:start;white-space:normal;shape-padding:0;shape-margin:0;inline-size:0;clip-rule:nonzero;display:inline;overflow:visible;visibility:visible;opacity:1;isolation:auto;mix-blend-mode:normal;color-interpolation:sRGB;color-interpolation-filters:linearRGB;solid-color:#000000;solid-opacity:1;vector-effect:none;fill:#000000;fill-opacity:1;fill-rule:nonzero;stroke:none;stroke-width:0.999999;stroke-linecap:butt;stroke-linejoin:miter;stroke-miterlimit:4;stroke-dasharray:none;stroke-dashoffset:0;stroke-opacity:1;color-rendering:auto;image-rendering:auto;shape-rendering:auto;text-rendering:auto;enable-background:accumulate;stop-color:#000000;stop-opacity:1"
           d="m 267.05104,2772.3032 c -17.00913,0 -29.98979,-4.6999 -38.94196,-14.0997 -8.95217,-9.3997 -13.42826,-22.6042 -13.42826,-39.6133 v -372.6343 c 0,-35.3611 17.68054,-53.0416 53.04163,-53.0416 h 163.15337 c 52.81782,0 93.55021,12.7569 122.19717,38.2706 28.64695,25.5137 42.97043,61.0985 42.97043,106.7546 0,35.3611 -9.17598,64.9033 -27.52793,88.6265 -17.90435,23.2757 -43.64185,39.1658 -77.2125,47.6704 23.72326,7.1617 43.19424,24.3947 58.41293,51.6988 l 41.62761,77.2125 c 9.39978,17.0091 11.19021,32.8992 5.3713,47.6703 -5.81891,14.3235 -19.91859,21.4852 -42.29902,21.4852 -14.77109,0 -26.85652,-3.1333 -36.2563,-9.3998 -9.39978,-6.2665 -17.45674,-15.89 -24.17087,-28.8707 l -64.45565,-118.8401 c -6.71413,-12.5331 -14.99489,-21.0376 -24.84228,-25.5137 -9.84739,-4.4761 -21.48522,-6.7142 -34.91348,-6.7142 h -51.02739 v 135.6255 c 0,17.0091 -4.47609,30.2136 -13.42826,39.6133 -8.50457,9.3998 -21.26141,14.0997 -38.27054,14.0997 z m 51.6988,-264.5367 h 93.32641 c 55.95109,0 83.92663,-22.3804 83.92663,-67.1413 0,-44.3133 -27.97554,-66.4699 -83.92663,-66.4699 h -93.32641 z"
           id="path1407" />
      </g>
      <g
         id="g1000-7-1"
         transform="matrix(1.6059164,0,0,1.6059164,-2583.1684,2128.1078)"
         style="stroke-width:0.622696">
        <g
           id="rect1001-0-5"
           transform="rotate(-0.582118)"
           style="opacity:1;stroke-width:0.622696">
          <path
             style="color:#000000;font-style:normal;font-variant:normal;font-weight:normal;font-stretch:normal;font-size:medium;line-height:normal;font-family:sans-serif;font-variant-ligatures:normal;font-variant-position:normal;font-variant-caps:normal;font-variant-numeric:normal;font-variant-alternates:normal;font-variant-east-asian:normal;font-feature-settings:normal;font-variation-settings:normal;text-indent:0;text-align:start;text-decoration:none;text-decoration-line:none;text-decoration-style:solid;text-decoration-color:#000000;letter-spacing:normal;word-spacing:normal;text-transform:none;writing-mode:lr-tb;direction:ltr;text-orientation:mixed;dominant-baseline:auto;baseline-shift:baseline;text-anchor:start;white-space:normal;shape-padding:0;shape-margin:0;inline-size:0;clip-rule:nonzero;display:inline;overflow:visible;visibility:visible;isolation:auto;mix-blend-mode:normal;color-interpolation:sRGB;color-interpolation-filters:linearRGB;solid-color:#000000;solid-opacity:1;vector-effect:none;fill:#ffffff;fill-opacity:1;fill-rule:evenodd;stroke:none;stroke-width:16.847;stroke-linecap:butt;stroke-linejoin:miter;stroke-miterlimit:4;stroke-dasharray:none;stroke-dashoffset:0;stroke-opacity:1;color-rendering:auto;image-rendering:auto;shape-rendering:auto;text-rendering:auto;enable-background:accumulate;stop-color:#000000;stop-opacity:1"
             d="m 247.44716,18.996181 c 81.52465,0 147.1564,65.631756 147.1564,147.156399 v 172.74881 c 0,81.52465 -65.63175,147.15641 -147.1564,147.15641 -81.52465,0 -147.1564,-65.63176 -147.1564,-147.15641 V 166.15258 c 0,-81.524643 65.63175,-147.156399 147.1564,-147.156399 z"
             id="path969-3-3" />
          <path
             style="color:#000000;font-style:normal;font-variant:normal;font-weight:normal;font-stretch:normal;font-size:medium;line-height:normal;font-family:sans-serif;font-variant-ligatures:normal;font-variant-position:normal;font-variant-caps:normal;font-variant-numeric:normal;font-variant-alternates:normal;font-variant-east-asian:normal;font-feature-settings:normal;font-variation-settings:normal;text-indent:0;text-align:start;text-decoration:none;text-decoration-line:none;text-decoration-style:solid;text-decoration-color:#000000;letter-spacing:normal;word-spacing:normal;text-transform:none;writing-mode:lr-tb;direction:ltr;text-orientation:mixed;dominant-baseline:auto;baseline-shift:baseline;text-anchor:start;white-space:normal;shape-padding:0;shape-margin:0;inline-size:0;clip-rule:nonzero;display:inline;overflow:visible;visibility:visible;isolation:auto;mix-blend-mode:normal;color-interpolation:sRGB;color-interpolation-filters:linearRGB;solid-color:#000000;solid-opacity:1;vector-effect:none;fill:#000000;fill-opacity:1;fill-rule:evenodd;stroke:none;stroke-width:0.622696;stroke-linecap:butt;stroke-linejoin:miter;stroke-miterlimit:4;stroke-dasharray:none;stroke-dashoffset:0;stroke-opacity:1;color-rendering:auto;image-rendering:auto;shape-rendering:auto;text-rendering:auto;enable-background:accumulate;stop-color:#000000;stop-opacity:1"
             d="m 247.44727,5.46875 c -88.78484,0 -160.683598,71.898754 -160.683598,160.68359 v 172.75 c 0,88.78484 71.898758,160.6836 160.683598,160.6836 88.78484,0 160.68359,-71.89876 160.68359,-160.6836 v -172.75 c 0,-88.784836 -71.89875,-160.68359 -160.68359,-160.68359 z m 0,27.054688 c 74.26445,0 133.6289,59.364452 133.6289,133.628902 v 172.75 c 0,74.26446 -59.36445,133.62891 -133.6289,133.62891 -74.26446,0 -133.62891,-59.36445 -133.62891,-133.62891 v -172.75 c 0,-74.26445 59.36445,-133.628903 133.62891,-133.628902 z"
             id="path971-9-5" />
        </g>
        <g
           id="path1003-9-4"
           style="opacity:1;stroke-width:0.622696">
          <path
             style="color:#000000;font-style:normal;font-variant:normal;font-weight:normal;font-stretch:normal;font-size:medium;line-height:normal;font-family:sans-serif;font-variant-ligatures:normal;font-variant-position:normal;font-variant-caps:normal;font-variant-numeric:normal;font-variant-alternates:normal;font-variant-east-asian:normal;font-feature-settings:normal;font-variation-settings:normal;text-indent:0;text-align:start;text-decoration:none;text-decoration-line:none;text-decoration-style:solid;text-decoration-color:#000000;letter-spacing:normal;word-spacing:normal;text-transform:none;writing-mode:lr-tb;direction:ltr;text-orientation:mixed;dominant-baseline:auto;baseline-shift:baseline;text-anchor:start;white-space:normal;shape-padding:0;shape-margin:0;inline-size:0;clip-rule:nonzero;display:inline;overflow:visible;visibility:visible;isolation:auto;mix-blend-mode:normal;color-interpolation:sRGB;color-interpolation-filters:linearRGB;solid-color:#000000;solid-opacity:1;vector-effect:none;fill:#666666;fill-opacity:1;fill-rule:evenodd;stroke:none;stroke-width:16.847;stroke-linecap:butt;stroke-linejoin:miter;stroke-miterlimit:4;stroke-dasharray:none;stroke-dashoffset:0;stroke-opacity:1;color-rendering:auto;image-rendering:auto;shape-rendering:auto;text-rendering:auto;enable-background:accumulate;stop-color:#000000;stop-opacity:1"
             d="m 397.14881,248.50492 0.8775,86.36995 c 0.8283,81.52045 -64.1333,147.81562 -145.6537,148.64392 -81.5205,0.8282 -147.8157,-64.13337 -148.6439,-145.65379 l -0.8776,-86.36995 z"
             id="path975-9-3" />
          <path
             style="color:#000000;font-style:normal;font-variant:normal;font-weight:normal;font-stretch:normal;font-size:medium;line-height:normal;font-family:sans-serif;font-variant-ligatures:normal;font-variant-position:normal;font-variant-caps:normal;font-variant-numeric:normal;font-variant-alternates:normal;font-variant-east-asian:normal;font-feature-settings:normal;font-variation-settings:normal;text-indent:0;text-align:start;text-decoration:none;text-decoration-line:none;text-decoration-style:solid;text-decoration-color:#000000;letter-spacing:normal;word-spacing:normal;text-transform:none;writing-mode:lr-tb;direction:ltr;text-orientation:mixed;dominant-baseline:auto;baseline-shift:baseline;text-anchor:start;white-space:normal;shape-padding:0;shape-margin:0;inline-size:0;clip-rule:nonzero;display:inline;overflow:visible;visibility:visible;isolation:auto;mix-blend-mode:normal;color-interpolation:sRGB;color-interpolation-filters:linearRGB;solid-color:#000000;solid-opacity:1;vector-effect:none;fill:#000000;fill-opacity:1;fill-rule:evenodd;stroke:none;stroke-width:0.622696;stroke-linecap:butt;stroke-linejoin:miter;stroke-miterlimit:4;stroke-dasharray:none;stroke-dashoffset:0;stroke-opacity:1;color-rendering:auto;image-rendering:auto;shape-rendering:auto;text-rendering:auto;enable-background:accumulate;stop-color:#000000;stop-opacity:1"
             d="m 410.53711,234.83984 -13.52539,0.13868 -307.82422,3.12695 1.013672,99.89648 c 0.901956,88.78025 73.528288,159.94493 162.308598,159.04297 88.78021,-0.90206 159.94503,-73.52637 159.04296,-162.30664 z m -26.77734,27.32813 0.74023,72.84375 c 0.75454,74.26063 -58.00504,134.22593 -132.26562,134.98047 -74.2607,0.75444 -134.22408,-58.00308 -134.97852,-132.26367 l -0.74219,-72.84375 z"
             id="path977-1-65" />
        </g>
        <path
           style="color:#000000;font-style:normal;font-variant:normal;font-weight:normal;font-stretch:normal;font-size:medium;line-height:normal;font-family:sans-serif;font-variant-ligatures:normal;font-variant-position:normal;font-variant-caps:normal;font-variant-numeric:normal;font-variant-alternates:normal;font-variant-east-asian:normal;font-feature-settings:normal;font-variation-settings:normal;text-indent:0;text-align:start;text-decoration:none;text-decoration-line:none;text-decoration-style:solid;text-decoration-color:#000000;letter-spacing:normal;word-spacing:normal;text-transform:none;writing-mode:lr-tb;direction:ltr;text-orientation:mixed;dominant-baseline:auto;baseline-shift:baseline;text-anchor:start;white-space:normal;shape-padding:0;shape-margin:0;inline-size:0;clip-rule:nonzero;display:inline;overflow:visible;visibility:visible;opacity:1;isolation:auto;mix-blend-mode:normal;color-interpolation:sRGB;color-interpolation-filters:linearRGB;solid-color:#000000;solid-opacity:1;vector-effect:none;fill:#000000;fill-opacity:1;fill-rule:nonzero;stroke:none;stroke-width:0.622696;stroke-linecap:round;stroke-linejoin:round;stroke-miterlimit:4;stroke-dasharray:none;stroke-dashoffset:0;stroke-opacity:1;paint-order:stroke fill markers;color-rendering:auto;image-rendering:auto;shape-rendering:auto;text-rendering:auto;enable-background:accumulate;stop-color:#000000;stop-opacity:1"
           d="m 196.36133,90.480469 c -9.80538,0 -18.86657,2.35349 -26.33008,7.052734 -7.46351,4.699247 -14.00195,12.775277 -14.00195,22.996097 a 12.5666,12.5666 0 0 0 12.5664,12.5664 12.5666,12.5666 0 0 0 12.56641,-12.5664 c 0,0.56567 -0.32402,-0.0985 2.26172,-1.72657 2.58573,-1.62805 7.40824,-3.1875 12.9375,-3.1875 5.52925,0 10.35176,1.55945 12.9375,3.1875 2.58573,1.62806 2.26172,2.29224 2.26172,1.72657 a 12.5666,12.5666 0 0 0 12.5664,12.5664 12.5666,12.5666 0 0 0 12.56641,-12.5664 c 0,-10.22082 -6.5404,-18.29685 -14.00391,-22.996097 -7.4635,-4.699244 -16.52275,-7.052734 -26.32812,-7.052734 z"
           id="path1005-7-9" />
        <path
           style="color:#000000;font-style:normal;font-variant:normal;font-weight:normal;font-stretch:normal;font-size:medium;line-height:normal;font-family:sans-serif;font-variant-ligatures:normal;font-variant-position:normal;font-variant-caps:normal;font-variant-numeric:normal;font-variant-alternates:normal;font-variant-east-asian:normal;font-feature-settings:normal;font-variation-settings:normal;text-indent:0;text-align:start;text-decoration:none;text-decoration-line:none;text-decoration-style:solid;text-decoration-color:#000000;letter-spacing:normal;word-spacing:normal;text-transform:none;writing-mode:lr-tb;direction:ltr;text-orientation:mixed;dominant-baseline:auto;baseline-shift:baseline;text-anchor:start;white-space:normal;shape-padding:0;shape-margin:0;inline-size:0;clip-rule:nonzero;display:inline;overflow:visible;visibility:visible;opacity:1;isolation:auto;mix-blend-mode:normal;color-interpolation:sRGB;color-interpolation-filters:linearRGB;solid-color:#000000;solid-opacity:1;vector-effect:none;fill:#000000;fill-opacity:1;fill-rule:nonzero;stroke:none;stroke-width:0.622696;stroke-linecap:round;stroke-linejoin:round;stroke-miterlimit:4;stroke-dasharray:none;stroke-dashoffset:0;stroke-opacity:1;paint-order:stroke fill markers;color-rendering:auto;image-rendering:auto;shape-rendering:auto;text-rendering:auto;enable-background:accumulate;stop-color:#000000;stop-opacity:1"
           d="m 303.63867,90.480469 c -9.80537,0 -18.86462,2.35349 -26.32812,7.052734 -7.46351,4.699247 -14.00391,12.775277 -14.00391,22.996097 a 12.5666,12.5666 0 0 0 12.56641,12.5664 12.5666,12.5666 0 0 0 12.5664,-12.5664 c 0,0.56567 -0.32401,-0.0985 2.26172,-1.72657 2.58574,-1.62805 7.40825,-3.1875 12.9375,-3.1875 5.52926,0 10.35177,1.55945 12.9375,3.1875 2.58573,1.62806 2.26172,2.29224 2.26172,1.72657 a 12.5666,12.5666 0 0 0 12.56641,12.5664 12.5666,12.5666 0 0 0 12.5664,-12.5664 c 0,-10.22081 -6.53845,-18.29685 -14.00195,-22.996097 -7.4635,-4.699245 -16.5247,-7.052734 -26.33008,-7.052734 z"
           id="path1007-23-5" />
        <path
           style="color:#000000;font-style:normal;font-variant:normal;font-weight:normal;font-stretch:normal;font-size:medium;line-height:normal;font-family:sans-serif;font-variant-ligatures:normal;font-variant-position:normal;font-variant-caps:normal;font-variant-numeric:normal;font-variant-alternates:normal;font-variant-east-asian:normal;font-feature-settings:normal;font-variation-settings:normal;text-indent:0;text-align:start;text-decoration:none;text-decoration-line:none;text-decoration-style:solid;text-decoration-color:#000000;letter-spacing:normal;word-spacing:normal;text-transform:none;writing-mode:lr-tb;direction:ltr;text-orientation:mixed;dominant-baseline:auto;baseline-shift:baseline;text-anchor:start;white-space:normal;shape-padding:0;shape-margin:0;inline-size:0;clip-rule:nonzero;display:inline;overflow:visible;visibility:visible;opacity:1;isolation:auto;mix-blend-mode:normal;color-interpolation:sRGB;color-interpolation-filters:linearRGB;solid-color:#000000;solid-opacity:1;vector-effect:none;fill:#000000;fill-opacity:1;fill-rule:nonzero;stroke:none;stroke-width:0.622696;stroke-linecap:round;stroke-linejoin:round;stroke-miterlimit:4;stroke-dasharray:none;stroke-dashoffset:0;stroke-opacity:1;paint-order:stroke fill markers;color-rendering:auto;image-rendering:auto;shape-rendering:auto;text-rendering:auto;enable-background:accumulate;stop-color:#000000;stop-opacity:1"
           d="m 221.36719,167.9043 a 12.5666,12.5666 0 0 0 -12.56641,12.5664 c 0,10.22082 6.5404,18.29685 14.00391,22.9961 7.4635,4.69924 16.5247,7.05273 26.33008,7.05273 9.80538,0 18.86462,-2.35349 26.32812,-7.05273 7.46351,-4.69925 14.00391,-12.77529 14.00391,-22.9961 a 12.5666,12.5666 0 0 0 -12.56641,-12.5664 12.5666,12.5666 0 0 0 -12.56641,12.5664 c 0,-0.56568 0.32402,0.0985 -2.26171,1.72657 -2.58574,1.62805 -7.40825,3.18945 -12.9375,3.18945 -5.52925,0 -10.35372,-1.5614 -12.93946,-3.18945 -2.58573,-1.62806 -2.25976,-2.29225 -2.25976,-1.72657 a 12.5666,12.5666 0 0 0 -12.56836,-12.5664 z"
           id="path1009-6-4" />
      </g>
    </g>
  </g>
</svg>
