<svg xmlns="http://www.w3.org/2000/svg" fill="#19162b" height="25" width="150" xmlns:v="https://vecta.io/nano"><path d="M5.28 24.05l-2.592-6.231-1.61-4.234-.837-2.591C.081 10.385.001 9.955 0 9.702c-.004-.436.157-.858.451-1.182.3-.34.762-.51 1.384-.511.472 0 .843.043 1.111.128a4.54 4.54 0 0 1 .534.191l.87 2.987.993 3.146 1.015 2.987.885 2.54L8 17.721l.837-2.636.853-2.748.773-2.636c.172-.553.414-.974.725-1.262s.81-.432 1.497-.432c.394-.005.786.054 1.16.176l.644.24.901 3.023.966 3.115.95 2.94.853 2.492 1.722-4.822 1.623-5.242c.193-.66.446-1.144.757-1.454s.789-.464 1.432-.463c.58 0 1.051.096 1.417.288l.612.351c-.173.703-.473 1.672-.902 2.907l-1.45 4.011-1.706 4.409-1.706 4.074H16.16l-.692-1.965-.95-2.828-1.015-3.148-.916-2.957-.917 2.956-.998 3.148-.918 2.828-.676 1.965zM33.859 7.562a9.48 9.48 0 0 1 3.492.639c1.046.403 2.002 1.006 2.815 1.774a8.18 8.18 0 0 1 1.867 2.684 8.65 8.65 0 0 1 .676 3.355 8.67 8.67 0 0 1-.676 3.355 8.16 8.16 0 0 1-1.867 2.684 8.8 8.8 0 0 1-2.817 1.789c-2.245.873-4.74.873-6.986 0a8.8 8.8 0 0 1-2.813-1.789 8.16 8.16 0 0 1-1.867-2.684 8.67 8.67 0 0 1 0-6.71 8.19 8.19 0 0 1 1.867-2.684 8.6 8.6 0 0 1 2.815-1.774 9.48 9.48 0 0 1 3.493-.639zm0 13.708a5.1 5.1 0 0 0 2.03-.399c.606-.255 1.15-.636 1.595-1.118a5.23 5.23 0 0 0 1.03-1.662c.252-.658.378-1.357.37-2.061a5.86 5.86 0 0 0-.37-2.093 5.05 5.05 0 0 0-1.03-1.678c-.449-.473-.992-.849-1.595-1.103a5.39 5.39 0 0 0-4.073 0 4.72 4.72 0 0 0-1.577 1.102 5.03 5.03 0 0 0-1.03 1.678 5.82 5.82 0 0 0-.37 2.093c-.008.704.118 1.403.37 2.061.236.613.586 1.176 1.03 1.662a4.61 4.61 0 0 0 1.577 1.118c.645.273 1.341.409 2.042.399zm10.223-7.541c0-1.959.606-3.477 1.819-4.553s2.892-1.614 5.038-1.614c1.353 0 2.453.186 3.299.559s1.27.943 1.272 1.71c-.003.373-.109.737-.306 1.054-.203.341-.37.554-.499.639-.437-.197-.889-.357-1.352-.479a6.85 6.85 0 0 0-1.834-.224c-2.511 0-3.768 1.321-3.77 3.962v9.266h-3.667zM55.94 2.194c0-.576.172-1.002.515-1.278s.827-.415 1.45-.415a3.71 3.71 0 0 1 1.062.144l.644.207v13.053l1.175-.844 1.69-1.223 1.932-1.402 1.899-1.367a8.31 8.31 0 0 1 1.288-.783c.387-.181.891-.271 1.513-.271.58 0 1.074.154 1.481.463s.665.57.772.783a27.99 27.99 0 0 1-1.851 1.482l-2.4 1.748-2.32 1.626-1.578 1.099a38.48 38.48 0 0 1 4.99 4.37c1.502 1.569 2.769 3.057 3.799 4.465H67.43l-1.657-1.871-1.964-1.922-2.124-1.826-2.077-1.617v7.235H55.94zm16.999 17.862a5.06 5.06 0 0 0 .805.415c.468.201.946.377 1.433.528a15.06 15.06 0 0 0 1.947.463 13.76 13.76 0 0 0 2.382.192c1.116 0 2.028-.144 2.736-.432s1.063-.783 1.064-1.485c0-.597-.225-1.049-.676-1.358s-1.255-.527-2.414-.655l-2.511-.288c-.803-.074-1.596-.23-2.367-.463a6.11 6.11 0 0 1-1.851-.91c-.508-.375-.921-.862-1.207-1.422s-.435-1.24-.435-2.029c-.004-.665.133-1.324.402-1.934a4.33 4.33 0 0 1 1.27-1.613c.58-.469 1.337-.836 2.269-1.103s2.065-.399 3.396-.399c2.232 0 3.965.245 5.199.735s1.85 1.13 1.847 1.918a1.47 1.47 0 0 1-.145.671 3.01 3.01 0 0 1-.322.511 1.98 1.98 0 0 1-.371.368 1.2 1.2 0 0 1-.29.176 3.82 3.82 0 0 0-.563-.399A6.45 6.45 0 0 0 83.362 11a12.31 12.31 0 0 0-1.771-.479c-.785-.147-1.583-.216-2.382-.207-2.49 0-3.734.65-3.734 1.949 0 .554.236.975.708 1.262s1.149.484 2.03.591l3.284.416c1.781.235 3.165.719 4.152 1.454s1.481 1.815 1.481 3.243a4.55 4.55 0 0 1-1.915 3.834c-1.277.958-3.118 1.438-5.521 1.439a17.81 17.81 0 0 1-3.155-.256 19.44 19.44 0 0 1-2.465-.591 12.46 12.46 0 0 1-1.69-.655c-.43-.213-.709-.373-.837-.479zM96.497 7.562a9.48 9.48 0 0 1 3.493.639 8.63 8.63 0 0 1 2.817 1.774 8.19 8.19 0 0 1 1.867 2.684 8.67 8.67 0 0 1 0 6.71 8.19 8.19 0 0 1-1.867 2.684 8.8 8.8 0 0 1-2.817 1.789c-2.246.873-4.74.873-6.986 0a8.79 8.79 0 0 1-2.817-1.789 8.16 8.16 0 0 1-1.867-2.684 8.67 8.67 0 0 1 0-6.71 8.19 8.19 0 0 1 1.867-2.684 8.6 8.6 0 0 1 2.817-1.774 9.48 9.48 0 0 1 3.493-.639zm0 13.708a5.1 5.1 0 0 0 2.03-.399 4.59 4.59 0 0 0 1.595-1.118 5.27 5.27 0 0 0 1.029-1.662c.252-.658.378-1.357.371-2.061a5.87 5.87 0 0 0-.371-2.093c-.229-.621-.579-1.19-1.029-1.678a4.72 4.72 0 0 0-1.595-1.103 5.39 5.39 0 0 0-4.073 0 4.72 4.72 0 0 0-1.577 1.102 5.03 5.03 0 0 0-1.03 1.678c-.251.669-.376 1.379-.371 2.093-.008.704.118 1.403.371 2.061.237.613.586 1.176 1.03 1.662a4.61 4.61 0 0 0 1.577 1.118c.645.273 1.341.409 2.043.399zm10.22-7.541c0-1.022.182-1.917.547-2.684.346-.743.858-1.399 1.497-1.917.664-.527 1.423-.923 2.237-1.167.908-.273 1.852-.408 2.801-.399 1.331 0 2.522.245 3.574.735 1.029.471 1.9 1.225 2.51 2.173a5.95 5.95 0 0 1 2.479-2.173c1.03-.49 2.199-.735 3.509-.735a9.66 9.66 0 0 1 2.769.384 6.28 6.28 0 0 1 2.221 1.151 5.52 5.52 0 0 1 1.481 1.917c.365.768.547 1.662.547 2.684V24.05h-3.67v-9.107c0-1.47-.333-2.52-.998-3.148s-1.567-.942-2.704-.942c-1.095 0-2.013.351-2.755 1.054s-1.111 1.842-1.108 3.418v8.724h-3.67v-8.724c0-1.577-.37-2.717-1.111-3.419s-1.659-1.054-2.755-1.054c-1.116 0-2.017.319-2.704.959s-1.029 1.694-1.03 3.167v9.075h-3.67zm42.671 9.138l-.805.448a8.29 8.29 0 0 1-1.368.543 15.59 15.59 0 0 1-1.9.448 13.58 13.58 0 0 1-2.365.192 10.18 10.18 0 0 1-3.365-.543 7.82 7.82 0 0 1-2.736-1.614c-.797-.733-1.428-1.626-1.851-2.619-.451-1.033-.676-2.221-.676-3.563 0-1.278.22-2.444.66-3.499a7.99 7.99 0 0 1 1.834-2.716c.795-.763 1.736-1.361 2.768-1.757 1.063-.415 2.227-.623 3.492-.623 1.116 0 2.104.144 2.962.432s1.584.672 2.175 1.151c.564.445 1.017 1.012 1.327 1.657s.467 1.352.46 2.066a4.79 4.79 0 0 1-.419 2.029c-.279.607-.772 1.129-1.48 1.566s-1.663.777-2.866 1.022-2.725.367-4.568.367c-.429 0-.832-.005-1.207-.016l-1.207-.048a3.95 3.95 0 0 0 .53 1.477c.274.453.636.846 1.065 1.159.89.672 2.162 1.008 3.815 1.008.518.003 1.035-.04 1.545-.128.431-.075.856-.181 1.272-.32a9.22 9.22 0 0 0 .965-.383l.596-.288zm-11.3-7.573l1.417.032h1.352c1.179 0 2.134-.075 2.865-.224s1.299-.341 1.706-.576.676-.501.805-.799a2.31 2.31 0 0 0 .193-.927c0-.809-.327-1.417-.982-1.822s-1.464-.607-2.43-.607c-.795 0-1.492.138-2.092.415-.577.258-1.092.634-1.514 1.103a5.01 5.01 0 0 0-.949 1.583c-.223.583-.348 1.197-.371 1.82zm-106.664.767c-.002-.329.064-.655.193-.959a2.48 2.48 0 0 1 .532-.785c.23-.227.504-.406.805-.527.31-.127.643-.193.979-.192a2.48 2.48 0 0 1 1.75.714c.465.459.727 1.082.729 1.733v.012a2.51 2.51 0 0 1-.193.974 2.43 2.43 0 0 1-.531.799 2.74 2.74 0 0 1-.789.543 2.28 2.28 0 0 1-.966.212 2.41 2.41 0 0 1-.965-.191 2.39 2.39 0 0 1-.806-.56c-.237-.231-.424-.507-.551-.812a2.43 2.43 0 0 1-.186-.961z"/><path d="M31.424 16.061a2.41 2.41 0 0 1 .193-.959 2.48 2.48 0 0 1 .532-.785c.23-.227.504-.406.805-.527.31-.127.643-.193.979-.192.656-.002 1.285.255 1.75.714s.727 1.082.729 1.733v.012a2.51 2.51 0 0 1-.193.974 2.43 2.43 0 0 1-.531.799 2.74 2.74 0 0 1-.789.543c-.302.14-.632.213-.966.212a2.41 2.41 0 0 1-.965-.191 2.39 2.39 0 0 1-.806-.56c-.237-.231-.424-.507-.551-.812a2.43 2.43 0 0 1-.186-.961z"/></svg>