<svg xmlns="http://www.w3.org/2000/svg" viewBox="0 0 900 204">
    <title>pestphp logo</title>
    <linearGradient id="a" gradientUnits="userSpaceOnUse" x1="-966.0548" y1="129.9631" x2="-965.0548" y2="129.9631" gradientTransform="matrix(869.3333 52.7991 232.9371 -197.0489 809467.9375 76685.5547)">
        <stop offset="0" stop-color="#64e6ae" />
        <stop offset="0.1" stop-color="#64e6ae" />
        <stop offset="0.3" stop-color="#4ed4ff" />
        <stop offset="0.7" stop-color="#f471b5" />
        <stop offset="1" stop-color="#f471b5" />
    </linearGradient>
    <path fill="url(#a)" d="M227.3,57.9C232.9,26,211.6,0,179.8,0h-144L25.6,57.9h144l-3.4,19.3h-144L0,204h57.6l12.1-69h86.4 c31.8,0,62.2-26,67.8-57.9L227.3,57.9z M396.6,77.8H243.5l-9,48.4h153L396.6,77.8z M458.2,0H256.6l-10.2,58h201.7L458.2,0z M220.8,204h201.7l10.1-58H231L220.8,204z M535,0c-31.4,0-61.7,26.5-67.8,58l-1.7,9.7h0.1c-3.9,30.8,16.7,57,47.6,57h86.4l-3.8,21.3 h-144l-10.2,58h144c31.8,0,62.2-26,67.8-58l3.7-21.3c5.6-32-15.7-58-47.5-58h-86.4l1.5-8.7h192.1l-25.6,146H749l25.6-146h57.6 C864,58,894.4,32,900,0H535z"/>
</svg>
